<svg width="11" height="12" viewBox="0 0 11 12" fill="none" xmlns="http://www.w3.org/2000/svg">
<path d="M7.80287 8.02979L6.29612 10.1409C6.21669 10.2522 6.11269 10.3427 5.99257 10.4051C5.87244 10.4675 5.7396 10.5001 5.60486 10.5001C5.47012 10.5001 5.33727 10.4675 5.21715 10.4051C5.09703 10.3427 4.99303 10.2522 4.9136 10.1409L3.40682 8.02979C1.54951 8.30416 0.256104 8.91502 0.256104 9.6251C0.256104 10.5916 2.65079 11.3751 5.60481 11.3751C8.55882 11.3751 10.9535 10.5916 10.9535 9.6251C10.9535 8.91503 9.66019 8.30418 7.80287 8.02979Z" fill="white" fill-opacity="0.6"/>
<path d="M5.6047 9.625L8.42484 5.67364C8.80473 5.14136 9.03311 4.51195 9.08467 3.85514C9.13624 3.19832 9.00898 2.53972 8.717 1.9523C8.42501 1.36488 7.9797 0.871557 7.43037 0.526974C6.88105 0.182392 6.24916 0 5.6047 0C4.96023 0 4.32834 0.182392 3.77902 0.526974C3.2297 0.871557 2.78438 1.36488 2.4924 1.9523C2.20041 2.53972 2.07315 3.19832 2.12472 3.85514C2.17629 4.51195 2.40466 5.14136 2.78455 5.67364L5.6047 9.625ZM5.6047 1.9852C5.91118 1.9852 6.21078 2.07812 6.46561 2.25221C6.72044 2.4263 6.91905 2.67375 7.03634 2.96326C7.15362 3.25276 7.18431 3.57133 7.12452 3.87867C7.06473 4.18601 6.91714 4.46831 6.70043 4.68989C6.48371 4.91147 6.2076 5.06237 5.90701 5.1235C5.60642 5.18464 5.29484 5.15326 5.01169 5.03334C4.72854 4.91342 4.48653 4.71035 4.31625 4.4498C4.14598 4.18925 4.0551 3.88293 4.0551 3.56957C4.0551 3.14937 4.21836 2.74638 4.50897 2.44925C4.79957 2.15212 5.19372 1.9852 5.6047 1.9852Z" fill="white" fill-opacity="0.6"/>
</svg>
