<svg width="24" height="24" viewBox="0 0 24 24" fill="none" xmlns="http://www.w3.org/2000/svg">
<g clip-path="url(#clip0_1144_403)">
<path d="M9 12C12.3137 12 15 9.31371 15 6C15 2.68629 12.3137 0 9 0C5.68629 0 3 2.68629 3 6C3 9.31371 5.68629 12 9 12Z" fill="white"/>
<path d="M13.043 14H4.957C3.64281 14.0016 2.3829 14.5244 1.45363 15.4536C0.524352 16.3829 0.00158783 17.6428 0 18.957L0 24H18V18.957C17.9984 17.6428 17.4756 16.3829 16.5464 15.4536C15.6171 14.5244 14.3572 14.0016 13.043 14Z" fill="white"/>
<path d="M21 10V7H19V10H16V12H19V15H21V12H24V10H21Z" fill="white"/>
</g>
<defs>
<clipPath id="clip0_1144_403">
<rect width="24" height="24" fill="white"/>
</clipPath>
</defs>
</svg>
