<svg width="15" height="20" viewBox="0 0 15 20" fill="none" xmlns="http://www.w3.org/2000/svg">
<path d="M7.4716 20H4.26576L5.93243 13.3333H2.48826C2.15541 13.3332 1.8272 13.2552 1.52987 13.1056C1.23254 12.956 0.974318 12.7389 0.775852 12.4717C0.577385 12.2045 0.444172 11.8945 0.386858 11.5667C0.329543 11.2388 0.349716 10.902 0.445764 10.5833L3.6466 0H11.5358L9.03576 6.66667H12.3883C12.7697 6.66691 13.1439 6.7705 13.4712 6.96643C13.7985 7.16236 14.0665 7.44331 14.2469 7.77941C14.4272 8.1155 14.5132 8.49419 14.4955 8.87521C14.4778 9.25624 14.3573 9.62536 14.1466 9.94333L7.4716 20ZM6.40076 18.3333H6.57743L12.7574 9.02167C12.8017 8.95489 12.8271 8.87736 12.8308 8.79733C12.8345 8.71729 12.8165 8.63774 12.7786 8.56713C12.7408 8.49652 12.6845 8.4375 12.6157 8.39633C12.547 8.35516 12.4684 8.33339 12.3883 8.33333H6.63076L9.13076 1.66667H4.88326L2.04076 11.0633C2.01955 11.1332 2.01499 11.2071 2.02747 11.279C2.03994 11.351 2.0691 11.419 2.11261 11.4777C2.15611 11.5363 2.21275 11.584 2.27799 11.6168C2.34322 11.6496 2.41524 11.6667 2.48826 11.6667H8.0716L6.40076 18.3333Z" fill="#979797"/>
</svg>
