<svg width="64" height="60" viewBox="0 0 64 60" fill="none" xmlns="http://www.w3.org/2000/svg">
<g clip-path="url(#clip0_1020_92)">
<path d="M33.2807 59.8797H23.1636L28.4233 40.1682H17.5541C16.5037 40.1678 15.4679 39.9372 14.5295 39.4948C13.5912 39.0525 12.7763 38.4106 12.15 37.6205C11.5237 36.8304 11.1033 35.9141 10.9224 34.9446C10.7415 33.9751 10.8052 32.9795 11.1083 32.0372L21.2096 0.745117H46.1066L38.217 20.4567H48.7969C50.0007 20.4574 51.1817 20.7637 52.2145 21.343C53.2473 21.9223 54.0933 22.753 54.6624 23.7467C55.2316 24.7405 55.5028 25.8602 55.447 26.9867C55.3913 28.1133 55.0108 29.2047 54.346 30.1449L33.2807 59.8797Z" fill="white"/>
</g>
<defs>
<clipPath id="clip0_1020_92">
<rect width="63.1169" height="59.1346" fill="white" transform="translate(0.233643 0.745117)"/>
</clipPath>
</defs>
</svg>
