<svg width="12" height="12" viewBox="0 0 12 12" fill="none" xmlns="http://www.w3.org/2000/svg">
<path d="M6 12C9.31371 12 12 9.31371 12 6C12 2.68629 9.31371 0 6 0C2.68629 0 0 2.68629 0 6C0 9.31371 2.68629 12 6 12Z" fill="#DA393B"/>
<path d="M6.2713 6L9.04696 4.04035C9.06762 4.02616 9.08451 4.00715 9.09619 3.98497C9.10786 3.9628 9.11396 3.93811 9.11396 3.91304C9.11396 3.88798 9.10786 3.86329 9.09619 3.84111C9.08451 3.81893 9.06762 3.79993 9.04696 3.78574L6.08974 1.69878C6.06611 1.68255 6.03862 1.67284 6.01003 1.67064C5.98145 1.66844 5.95279 1.67383 5.92696 1.68626C5.90185 1.70002 5.88087 1.72023 5.86619 1.74482C5.85152 1.7694 5.84367 1.79746 5.84348 1.82609V5.69739L3.13043 3.78574C3.09664 3.76661 3.05694 3.76073 3.01905 3.76924C2.98116 3.77775 2.94779 3.80004 2.92541 3.83178C2.90304 3.86352 2.89326 3.90244 2.89798 3.94099C2.9027 3.97953 2.92158 4.01495 2.95096 4.04035L5.7287 6L2.95304 7.95965C2.92617 7.97887 2.90607 8.00611 2.89561 8.03745C2.88516 8.0688 2.8849 8.10264 2.89486 8.13415C2.90482 8.16565 2.9245 8.1932 2.95107 8.21284C2.97764 8.23247 3.00974 8.2432 3.04278 8.24348C3.07513 8.2441 3.10674 8.2338 3.13252 8.21426L5.84557 6.30261V10.1739C5.84576 10.2025 5.8536 10.2306 5.86828 10.2552C5.88296 10.2798 5.90393 10.3 5.92904 10.3137C5.95192 10.3244 5.97683 10.3301 6.00209 10.3304C6.03427 10.33 6.06557 10.3198 6.09183 10.3012L9.04904 8.21426C9.0697 8.20007 9.0866 8.18107 9.09828 8.15889C9.10995 8.13671 9.11605 8.11202 9.11605 8.08696C9.11605 8.06189 9.10995 8.0372 9.09828 8.01503C9.0866 7.99285 9.0697 7.97384 9.04904 7.95965L6.2713 6ZM6.15652 2.1287L8.68591 3.91304L6.15652 5.69739V2.1287ZM6.15652 9.8713V6.30261L8.68591 8.08696L6.15652 9.8713Z" fill="#1E1E1E"/>
</svg>
