<svg width="10" height="12" viewBox="0 0 10 12" fill="none" xmlns="http://www.w3.org/2000/svg">
<path fill-rule="evenodd" clip-rule="evenodd" d="M4.93497 12.007C2.22144 12.007 0 9.78559 0 7.07206C0 5.89104 0.421793 4.74517 1.18805 3.83831C1.23726 3.79613 1.31459 3.76098 1.37083 3.79613C1.43409 3.82425 1.47627 3.88049 1.47627 3.94376C1.43409 5.16696 2.08084 5.9051 2.47452 6.24253C2.3058 3.79613 2.69947 2.0246 3.6696 0.956063C4.49912 0.0351494 5.43409 0 5.4833 0C5.52548 0 5.56766 0.0210896 5.60281 0.0492091C5.63093 0.0773286 5.64499 0.126538 5.64499 0.168717C5.64499 2.99473 6.11599 4.24605 6.41828 4.75923C6.60105 2.58699 8.40773 2.48155 8.44288 2.48155C8.48506 2.48155 8.53427 2.49561 8.57645 2.53779C8.60457 2.57293 8.61863 2.62917 8.61863 2.67838C8.471 3.74692 8.87873 4.53427 9.28647 5.30053C9.58875 5.89104 9.89104 6.45343 9.89104 7.07206C9.87698 9.79262 7.65554 12.007 4.93497 12.007ZM3.40949 9.89807C3.36731 9.89807 3.30404 9.86292 3.27592 9.82074L2.65026 8.89982L2.41125 9.12478V9.68014C2.41125 9.77153 2.34095 9.84886 2.24956 9.84886C2.15817 9.84886 2.08084 9.77153 2.08084 9.68014V9.07557V9.06854V7.41652C2.08084 7.32513 2.15817 7.25483 2.24956 7.25483C2.34095 7.25483 2.41125 7.32513 2.41125 7.41652V8.6819C2.65729 8.45694 2.89631 8.22496 3.14235 7.99297C3.19859 7.9297 3.30404 7.9297 3.36731 7.99297C3.42355 8.04921 3.42355 8.15466 3.36731 8.21793L2.88928 8.67487L3.55009 9.63796C3.59227 9.71529 3.57821 9.82074 3.50088 9.86292C3.48682 9.89807 3.4587 9.89807 3.40949 9.89807ZM4.471 9.89807C3.98594 9.89807 3.59227 9.45518 3.59227 8.92794C3.59227 8.4007 3.98594 7.96485 4.471 7.96485C4.78735 7.96485 5.07557 8.15466 5.2232 8.45694C5.27241 8.53427 5.2232 8.63972 5.14587 8.68893C5.07557 8.73111 4.97012 8.68893 4.92091 8.6116C4.82953 8.41476 4.64675 8.29525 4.45694 8.29525C4.15466 8.29525 3.90861 8.58348 3.90861 8.92794C3.90861 9.27241 4.15466 9.56063 4.45694 9.56063C4.64675 9.56063 4.81547 9.44112 4.92091 9.24429C4.97012 9.16696 5.05448 9.13884 5.14587 9.16696C5.2232 9.21617 5.25132 9.30756 5.2232 9.39894C5.07557 9.71529 4.78735 9.89807 4.471 9.89807ZM6.19332 9.84886C5.84183 9.84886 5.5536 9.57469 5.5536 9.27241C5.5536 9.1529 5.60281 8.942 5.89104 8.78032C6.08084 8.67487 6.34095 8.60457 6.65729 8.58348V8.44288C6.65729 8.26713 6.50967 8.12654 6.34095 8.12654H6.14411C5.96134 8.12654 5.82777 8.28119 5.82777 8.44288C5.82777 8.53427 5.75044 8.6116 5.65905 8.6116C5.56766 8.6116 5.49736 8.53427 5.49736 8.44288C5.49736 8.08436 5.78559 7.79613 6.14411 7.79613H6.34095C6.7065 7.79613 6.9877 8.08436 6.9877 8.44288V8.74517V9.72935C6.9877 9.82074 6.9174 9.89807 6.82601 9.89807C6.73462 9.89807 6.65729 9.82074 6.65729 9.72935V9.68717C6.52373 9.77153 6.36204 9.84886 6.19332 9.84886ZM6.65729 8.91388C6.32689 8.93497 6.14411 8.99824 6.03866 9.06151C5.96134 9.11072 5.86995 9.18805 5.86995 9.27241C5.86995 9.39894 5.99649 9.53251 6.19332 9.53251C6.35501 9.53251 6.55888 9.37786 6.65729 9.28647V8.91388ZM7.62742 9.89807C7.53603 9.89807 7.4587 9.82074 7.4587 9.72935V7.47979C7.4587 7.3884 7.53603 7.31107 7.62742 7.31107C7.7188 7.31107 7.7891 7.3884 7.7891 7.47979V9.72935C7.7891 9.82074 7.7188 9.89807 7.62742 9.89807ZM5.78559 6.08787C5.73638 6.08787 5.6942 6.07381 5.64499 6.03163C4.09139 4.02109 4.2109 2.32689 4.22496 2.24956C4.23902 2.1652 4.31634 2.10193 4.40773 2.10193C4.49912 2.11599 4.56239 2.19332 4.56239 2.28471C4.56239 2.29877 4.43585 3.9297 5.91916 5.8348C5.9754 5.9051 5.96134 6.01054 5.89104 6.05975C5.85589 6.08787 5.81371 6.08787 5.78559 6.08787Z" fill="white"/>
</svg>
