<svg width="39" height="35" viewBox="0 0 39 35" fill="none" xmlns="http://www.w3.org/2000/svg">
<path fill-rule="evenodd" clip-rule="evenodd" d="M19.6338 24.8731C16.4834 24.8731 13.9296 22.3192 13.9296 19.1689C13.9296 16.0185 16.4834 13.4646 19.6338 13.4646C22.7842 13.4646 25.338 16.0185 25.338 19.1689C25.338 22.3192 22.7842 24.8731 19.6338 24.8731ZM34.8451 3.9576C36.9366 3.9576 38.6479 5.66887 38.6479 7.76042V30.5773C38.6479 32.6689 36.9366 34.3801 34.8451 34.3801H4.42254C2.33099 34.3801 0.61972 32.6689 0.61972 30.5773V7.76042C0.61972 5.66887 2.33099 3.9576 4.42254 3.9576H10.45L12.7887 1.3907C13.5113 0.611123 14.538 0.154785 15.6028 0.154785H23.6648C24.7296 0.154785 25.7563 0.611123 26.4599 1.3907L28.8176 3.9576H34.8451ZM19.6338 28.6759C24.8817 28.6759 29.1408 24.4168 29.1408 19.1689C29.1408 13.921 24.8817 9.66183 19.6338 9.66183C14.3859 9.66183 10.1268 13.921 10.1268 19.1689C10.1268 24.4168 14.3859 28.6759 19.6338 28.6759Z" fill="white"/>
</svg>
