<svg width="16" height="16" viewBox="0 0 16 16" fill="none" xmlns="http://www.w3.org/2000/svg">
<path d="M11.8889 9.66753H11.0556V8.55642H11.8889C12.6256 8.55642 13.3322 8.26377 13.8531 7.74283C14.374 7.2219 14.6667 6.51536 14.6667 5.77865V4.11198C14.6667 3.96464 14.6082 3.82333 14.504 3.71914C14.3998 3.61496 14.2585 3.55642 14.1111 3.55642H11.0556V2.44531H14.1111C14.5532 2.44531 14.9771 2.62091 15.2896 2.93347C15.6022 3.24603 15.7778 3.66995 15.7778 4.11198V5.77865C15.7778 6.81004 15.3681 7.7992 14.6388 8.52851C13.9095 9.25781 12.9203 9.66753 11.8889 9.66753Z" fill="#FED200"/>
<path d="M4.11112 9.66753H4.94445V8.55642H4.11112C3.37441 8.55642 2.66787 8.26377 2.14693 7.74283C1.626 7.2219 1.33334 6.51536 1.33334 5.77865V4.11198C1.33334 3.96464 1.39187 3.82333 1.49606 3.71914C1.60025 3.61496 1.74155 3.55642 1.8889 3.55642H4.94445V2.44531H1.8889C1.44687 2.44531 1.02295 2.62091 0.710384 2.93347C0.397824 3.24603 0.222229 3.66995 0.222229 4.11198V5.77865C0.222229 6.81004 0.63195 7.7992 1.36126 8.52851C2.09057 9.25781 3.07972 9.66753 4.11112 9.66753Z" fill="#FED200"/>
<path d="M11.9286 14.9453V14.4095C11.9286 14.078 11.7969 13.76 11.5625 13.5256C11.3281 13.2912 11.0101 13.1595 10.6786 13.1595C10.3471 13.1595 10.0291 13.0278 9.79472 12.7934C9.5603 12.5589 9.4286 12.241 9.4286 11.9095V9.94531H6.57138V11.9095C6.57138 12.241 6.43968 12.5589 6.20526 12.7934C5.97084 13.0278 5.6529 13.1595 5.32138 13.1595C4.98986 13.1595 4.67192 13.2912 4.4375 13.5256C4.20308 13.76 4.07138 14.078 4.07138 14.4095V14.9453H11.9286Z" fill="#FED200"/>
<path d="M12.7222 14.1113H3.2778C2.98311 14.1113 2.7005 14.2284 2.49212 14.4368C2.28375 14.6451 2.16669 14.9278 2.16669 15.2224C2.16669 15.3698 2.22522 15.5111 2.32941 15.6153C2.43359 15.7195 2.5749 15.778 2.72224 15.778H13.2778C13.4251 15.778 13.5664 15.7195 13.6706 15.6153C13.7748 15.5111 13.8334 15.3698 13.8334 15.2224C13.8334 14.9278 13.7163 14.6451 13.5079 14.4368C13.2995 14.2284 13.0169 14.1113 12.7222 14.1113Z" fill="#6FC6FC"/>
<path d="M9.42862 9.94531H6.5714V11.9095C6.57039 12.2224 6.45135 12.5233 6.23807 12.7523C7.38837 13.0837 8.60888 13.0837 9.75918 12.7523C9.5459 12.5233 9.42686 12.2224 9.42585 11.9095L9.42862 9.94531Z" fill="#F7A500"/>
<path d="M8.00001 11.8893C6.60025 11.8893 5.25783 11.3333 4.26805 10.3435C3.27828 9.35372 2.72223 8.0113 2.72223 6.61155V2.44488C2.72223 1.85551 2.95636 1.29028 3.3731 0.87353C3.78985 0.456782 4.35508 0.222656 4.94445 0.222656H11.0556C11.6449 0.222656 12.2102 0.456782 12.6269 0.87353C13.0437 1.29028 13.2778 1.85551 13.2778 2.44488V6.61155C13.2778 8.0113 12.7217 9.35372 11.732 10.3435C10.7422 11.3333 9.39976 11.8893 8.00001 11.8893Z" fill="#FED200"/>
<path d="M8.00001 7.94221L6.80556 8.44832C6.71741 8.48573 6.62107 8.49971 6.52592 8.48892C6.43076 8.47812 6.34001 8.44291 6.26248 8.3867C6.18494 8.33049 6.12325 8.25519 6.0834 8.16811C6.04354 8.08103 6.02687 7.98513 6.03501 7.88971L6.14612 6.59666L5.29529 5.61666C5.23251 5.5443 5.18951 5.45695 5.17046 5.36307C5.15141 5.2692 5.15696 5.17199 5.18656 5.08089C5.21616 4.98979 5.26881 4.90789 5.33941 4.84315C5.41 4.7784 5.49614 4.73301 5.58945 4.71138L6.85473 4.41749L7.5239 3.30638C7.57329 3.22424 7.64309 3.15627 7.72652 3.10909C7.80995 3.06191 7.90416 3.03711 8.00001 3.03711C8.09585 3.03711 8.19007 3.06191 8.2735 3.10909C8.35693 3.15627 8.42673 3.22424 8.47612 3.30638L9.14529 4.41749L10.4095 4.71027C10.5028 4.7319 10.5889 4.77729 10.6595 4.84204C10.7301 4.90678 10.7827 4.98868 10.8123 5.07978C10.842 5.17088 10.8475 5.26809 10.8284 5.36196C10.8094 5.45584 10.7664 5.54319 10.7036 5.61554L9.85279 6.59582L9.9639 7.88888C9.97209 7.98423 9.95552 8.08007 9.91578 8.16713C9.87604 8.25419 9.81449 8.32951 9.73709 8.38579C9.65968 8.44206 9.56906 8.47739 9.47399 8.48835C9.37892 8.49931 9.28263 8.48552 9.19445 8.44832L8.00001 7.94221Z" fill="#F7F7F7"/>
</svg>
