<svg width="417" height="256" viewBox="0 0 417 256" fill="none" xmlns="http://www.w3.org/2000/svg">
<rect y="1" width="400" height="255" rx="12" fill="#383838" fill-opacity="0.9"/>
<path d="M34.9698 214.144C34.2498 214.144 33.6298 213.964 33.1098 213.604C32.5978 213.236 32.2018 212.728 31.9218 212.08C31.6418 211.424 31.5018 210.664 31.5018 209.8C31.5018 208.936 31.6418 208.18 31.9218 207.532C32.2018 206.876 32.5978 206.368 33.1098 206.008C33.6298 205.64 34.2498 205.456 34.9698 205.456C35.6898 205.456 36.3058 205.64 36.8178 206.008C37.3298 206.368 37.7258 206.876 38.0058 207.532C38.2858 208.18 38.4258 208.936 38.4258 209.8C38.4258 210.664 38.2858 211.424 38.0058 212.08C37.7258 212.728 37.3298 213.236 36.8178 213.604C36.3058 213.964 35.6898 214.144 34.9698 214.144ZM34.9698 213.256C35.4338 213.256 35.8458 213.12 36.2058 212.848C36.5738 212.568 36.8618 212.172 37.0698 211.66C37.2858 211.14 37.3938 210.52 37.3938 209.8C37.3938 209.072 37.2858 208.452 37.0698 207.94C36.8618 207.428 36.5738 207.036 36.2058 206.764C35.8458 206.492 35.4338 206.356 34.9698 206.356C34.5058 206.356 34.0858 206.492 33.7098 206.764C33.3418 207.036 33.0538 207.428 32.8458 207.94C32.6378 208.452 32.5338 209.072 32.5338 209.8C32.5338 210.52 32.6378 211.14 32.8458 211.66C33.0538 212.172 33.3418 212.568 33.7098 212.848C34.0858 213.12 34.5058 213.256 34.9698 213.256Z" fill="white"/>
<path d="M27.4003 238V229.6H28.5763L31.4923 235.492L34.4083 229.6H35.5963V238H34.5883V231.412L31.8763 236.848H31.1203L28.4083 231.436V238H27.4003ZM36.8798 238L39.9758 229.6H41.0438L44.1278 238H43.0478L40.5038 230.86L37.9358 238H36.8798ZM38.2958 235.84L38.5838 235.024H42.3878L42.6758 235.84H38.2958ZM45.4003 238V229.6H47.7403C48.7243 229.6 49.5323 229.772 50.1643 230.116C50.8043 230.452 51.2763 230.936 51.5803 231.568C51.8923 232.192 52.0483 232.944 52.0483 233.824C52.0483 234.688 51.8923 235.432 51.5803 236.056C51.2763 236.68 50.8043 237.16 50.1643 237.496C49.5323 237.832 48.7243 238 47.7403 238H45.4003ZM46.4083 237.16H47.7163C48.5323 237.16 49.1803 237.028 49.6603 236.764C50.1403 236.492 50.4843 236.108 50.6923 235.612C50.9003 235.108 51.0043 234.512 51.0043 233.824C51.0043 233.12 50.9003 232.516 50.6923 232.012C50.4843 231.508 50.1403 231.12 49.6603 230.848C49.1803 230.576 48.5323 230.44 47.7163 230.44H46.4083V237.16ZM54.5771 238V230.728L53.0171 231.172V230.416L54.9131 229.6H55.5971V238H54.5771Z" fill="white"/>
<path d="M81.9589 238V229.6H83.1349L86.0509 235.492L88.9669 229.6H90.1549V238H89.1469V231.412L86.4349 236.848H85.6789L82.9669 231.436V238H81.9589ZM91.4384 238L94.5344 229.6H95.6024L98.6864 238H97.6064L95.0624 230.86L92.4944 238H91.4384ZM92.8544 235.84L93.1424 235.024H96.9464L97.2344 235.84H92.8544ZM99.9589 238V229.6H102.299C103.283 229.6 104.091 229.772 104.723 230.116C105.363 230.452 105.835 230.936 106.139 231.568C106.451 232.192 106.607 232.944 106.607 233.824C106.607 234.688 106.451 235.432 106.139 236.056C105.835 236.68 105.363 237.16 104.723 237.496C104.091 237.832 103.283 238 102.299 238H99.9589ZM100.967 237.16H102.275C103.091 237.16 103.739 237.028 104.219 236.764C104.699 236.492 105.043 236.108 105.251 235.612C105.459 235.108 105.563 234.512 105.563 233.824C105.563 233.12 105.459 232.516 105.251 232.012C105.043 231.508 104.699 231.12 104.219 230.848C103.739 230.576 103.091 230.44 102.275 230.44H100.967V237.16ZM107.748 238V237.292C108.332 236.844 108.884 236.392 109.404 235.936C109.924 235.48 110.384 235.028 110.784 234.58C111.184 234.124 111.5 233.68 111.732 233.248C111.964 232.816 112.08 232.4 112.08 232C112.08 231.704 112.024 231.432 111.912 231.184C111.808 230.928 111.64 230.72 111.408 230.56C111.184 230.4 110.876 230.32 110.484 230.32C110.108 230.32 109.792 230.404 109.536 230.572C109.288 230.732 109.1 230.948 108.972 231.22C108.844 231.484 108.78 231.776 108.78 232.096H107.808C107.816 231.544 107.936 231.072 108.168 230.68C108.4 230.28 108.716 229.976 109.116 229.768C109.524 229.56 109.984 229.456 110.496 229.456C111 229.456 111.444 229.552 111.828 229.744C112.22 229.928 112.528 230.208 112.752 230.584C112.976 230.952 113.088 231.412 113.088 231.964C113.088 232.356 113.004 232.748 112.836 233.14C112.676 233.532 112.456 233.916 112.176 234.292C111.904 234.66 111.6 235.016 111.264 235.36C110.928 235.704 110.584 236.028 110.232 236.332C109.88 236.636 109.548 236.912 109.236 237.16H113.376V238H107.748Z" fill="white"/>
<path d="M136.283 238V229.6H137.459L140.375 235.492L143.291 229.6H144.479V238H143.471V231.412L140.759 236.848H140.003L137.291 231.436V238H136.283ZM145.763 238L148.859 229.6H149.927L153.011 238H151.931L149.387 230.86L146.819 238H145.763ZM147.179 235.84L147.467 235.024H151.271L151.559 235.84H147.179ZM154.283 238V229.6H156.623C157.607 229.6 158.415 229.772 159.047 230.116C159.687 230.452 160.159 230.936 160.463 231.568C160.775 232.192 160.931 232.944 160.931 233.824C160.931 234.688 160.775 235.432 160.463 236.056C160.159 236.68 159.687 237.16 159.047 237.496C158.415 237.832 157.607 238 156.623 238H154.283ZM155.291 237.16H156.599C157.415 237.16 158.063 237.028 158.543 236.764C159.023 236.492 159.367 236.108 159.575 235.612C159.783 235.108 159.887 234.512 159.887 233.824C159.887 233.12 159.783 232.516 159.575 232.012C159.367 231.508 159.023 231.12 158.543 230.848C158.063 230.576 157.415 230.44 156.599 230.44H155.291V237.16ZM165.044 238.144C164.508 238.144 164.02 238.048 163.58 237.856C163.148 237.656 162.804 237.36 162.548 236.968C162.292 236.576 162.156 236.088 162.14 235.504H163.16C163.168 235.824 163.244 236.12 163.388 236.392C163.54 236.656 163.756 236.868 164.036 237.028C164.316 237.188 164.652 237.268 165.044 237.268C165.436 237.268 165.764 237.192 166.028 237.04C166.292 236.888 166.492 236.688 166.628 236.44C166.764 236.184 166.832 235.9 166.832 235.588C166.832 235.204 166.736 234.892 166.544 234.652C166.36 234.412 166.108 234.232 165.788 234.112C165.476 233.992 165.132 233.932 164.756 233.932H164.132V233.08H164.756C165.308 233.08 165.744 232.952 166.064 232.696C166.384 232.44 166.544 232.088 166.544 231.64C166.544 231.264 166.416 230.952 166.16 230.704C165.912 230.456 165.54 230.332 165.044 230.332C164.556 230.332 164.168 230.468 163.88 230.74C163.6 231.012 163.44 231.36 163.4 231.784H162.38C162.404 231.328 162.528 230.924 162.752 230.572C162.976 230.22 163.284 229.948 163.676 229.756C164.068 229.556 164.524 229.456 165.044 229.456C165.596 229.456 166.056 229.552 166.424 229.744C166.8 229.936 167.084 230.192 167.276 230.512C167.468 230.832 167.564 231.184 167.564 231.568C167.564 231.856 167.508 232.132 167.396 232.396C167.292 232.652 167.136 232.876 166.928 233.068C166.72 233.252 166.452 233.384 166.124 233.464C166.452 233.528 166.744 233.656 167 233.848C167.264 234.032 167.472 234.272 167.624 234.568C167.776 234.856 167.852 235.196 167.852 235.588C167.852 236.044 167.744 236.468 167.528 236.86C167.32 237.244 167.008 237.556 166.592 237.796C166.176 238.028 165.66 238.144 165.044 238.144Z" fill="white"/>
<path d="M191.183 238V229.6H192.359L195.275 235.492L198.191 229.6H199.379V238H198.371V231.412L195.659 236.848H194.903L192.191 231.436V238H191.183ZM200.663 238L203.759 229.6H204.827L207.911 238H206.831L204.287 230.86L201.719 238H200.663ZM202.079 235.84L202.367 235.024H206.171L206.459 235.84H202.079ZM209.183 238V229.6H211.523C212.507 229.6 213.315 229.772 213.947 230.116C214.587 230.452 215.059 230.936 215.363 231.568C215.675 232.192 215.831 232.944 215.831 233.824C215.831 234.688 215.675 235.432 215.363 236.056C215.059 236.68 214.587 237.16 213.947 237.496C213.315 237.832 212.507 238 211.523 238H209.183ZM210.191 237.16H211.499C212.315 237.16 212.963 237.028 213.443 236.764C213.923 236.492 214.267 236.108 214.475 235.612C214.683 235.108 214.787 234.512 214.787 233.824C214.787 233.12 214.683 232.516 214.475 232.012C214.267 231.508 213.923 231.12 213.443 230.848C212.963 230.576 212.315 230.44 211.499 230.44H210.191V237.16ZM221.132 238V236.2H216.872V235.42L220.952 229.6H222.128V235.312H223.376V236.2H222.128V238H221.132ZM217.988 235.312H221.18V230.716L217.988 235.312Z" fill="white"/>
<path d="M246.189 238V229.6H247.365L250.281 235.492L253.197 229.6H254.385V238H253.377V231.412L250.665 236.848H249.909L247.197 231.436V238H246.189ZM255.669 238L258.765 229.6H259.833L262.917 238H261.837L259.293 230.86L256.725 238H255.669ZM257.085 235.84L257.373 235.024H261.177L261.465 235.84H257.085ZM264.189 238V229.6H266.529C267.513 229.6 268.321 229.772 268.953 230.116C269.593 230.452 270.065 230.936 270.369 231.568C270.681 232.192 270.837 232.944 270.837 233.824C270.837 234.688 270.681 235.432 270.369 236.056C270.065 236.68 269.593 237.16 268.953 237.496C268.321 237.832 267.513 238 266.529 238H264.189ZM265.197 237.16H266.505C267.321 237.16 267.969 237.028 268.449 236.764C268.929 236.492 269.273 236.108 269.481 235.612C269.689 235.108 269.793 234.512 269.793 233.824C269.793 233.12 269.689 232.516 269.481 232.012C269.273 231.508 268.929 231.12 268.449 230.848C267.969 230.576 267.321 230.44 266.505 230.44H265.197V237.16ZM275.13 238.144C274.562 238.144 274.07 238.044 273.654 237.844C273.238 237.636 272.906 237.356 272.658 237.004C272.418 236.652 272.27 236.252 272.214 235.804H273.198C273.286 236.244 273.498 236.6 273.834 236.872C274.17 237.144 274.606 237.28 275.142 237.28C275.534 237.28 275.87 237.188 276.15 237.004C276.438 236.82 276.658 236.572 276.81 236.26C276.962 235.94 277.038 235.584 277.038 235.192C277.038 234.784 276.962 234.428 276.81 234.124C276.658 233.82 276.442 233.584 276.162 233.416C275.882 233.24 275.558 233.152 275.19 233.152C274.742 233.152 274.358 233.248 274.038 233.44C273.718 233.624 273.478 233.864 273.318 234.16H272.346L273.018 229.6H277.482V230.476H273.798L273.33 233.068C273.53 232.844 273.798 232.66 274.134 232.516C274.47 232.372 274.858 232.3 275.298 232.3C275.706 232.3 276.074 232.372 276.402 232.516C276.738 232.66 277.026 232.864 277.266 233.128C277.506 233.384 277.69 233.688 277.818 234.04C277.946 234.392 278.01 234.772 278.01 235.18C278.01 235.58 277.942 235.96 277.806 236.32C277.678 236.68 277.49 236.996 277.242 237.268C277.002 237.54 276.702 237.756 276.342 237.916C275.99 238.068 275.586 238.144 275.13 238.144Z" fill="white"/>
<path d="M296.084 238V229.6H297.26L300.176 235.492L303.092 229.6H304.28V238H303.272V231.412L300.56 236.848H299.804L297.092 231.436V238H296.084ZM305.563 238L308.659 229.6H309.727L312.811 238H311.731L309.187 230.86L306.619 238H305.563ZM306.979 235.84L307.267 235.024H311.071L311.359 235.84H306.979ZM314.084 238V229.6H316.424C317.408 229.6 318.216 229.772 318.848 230.116C319.488 230.452 319.96 230.936 320.264 231.568C320.576 232.192 320.732 232.944 320.732 233.824C320.732 234.688 320.576 235.432 320.264 236.056C319.96 236.68 319.488 237.16 318.848 237.496C318.216 237.832 317.408 238 316.424 238H314.084ZM315.092 237.16H316.4C317.216 237.16 317.864 237.028 318.344 236.764C318.824 236.492 319.168 236.108 319.376 235.612C319.584 235.108 319.688 234.512 319.688 233.824C319.688 233.12 319.584 232.516 319.376 232.012C319.168 231.508 318.824 231.12 318.344 230.848C317.864 230.576 317.216 230.44 316.4 230.44H315.092V237.16ZM325.205 238.144C324.605 238.144 324.097 238.032 323.681 237.808C323.273 237.584 322.945 237.28 322.697 236.896C322.449 236.512 322.265 236.084 322.145 235.612C322.033 235.132 321.977 234.64 321.977 234.136C321.977 233.208 322.105 232.396 322.361 231.7C322.617 230.996 322.985 230.448 323.465 230.056C323.953 229.656 324.537 229.456 325.217 229.456C325.745 229.456 326.197 229.56 326.573 229.768C326.957 229.968 327.257 230.24 327.473 230.584C327.697 230.92 327.833 231.296 327.881 231.712H326.945C326.865 231.272 326.673 230.932 326.369 230.692C326.065 230.452 325.677 230.332 325.205 230.332C324.781 230.332 324.401 230.464 324.065 230.728C323.737 230.992 323.473 231.388 323.273 231.916C323.081 232.444 322.969 233.12 322.937 233.944C322.937 233.96 322.937 233.976 322.937 233.992C322.937 234.008 322.937 234.024 322.937 234.04C323.057 233.784 323.229 233.552 323.453 233.344C323.685 233.128 323.961 232.956 324.281 232.828C324.601 232.692 324.953 232.624 325.337 232.624C325.817 232.624 326.261 232.736 326.669 232.96C327.085 233.184 327.417 233.5 327.665 233.908C327.921 234.308 328.049 234.78 328.049 235.324C328.049 235.796 327.933 236.248 327.701 236.68C327.477 237.112 327.153 237.464 326.729 237.736C326.305 238.008 325.797 238.144 325.205 238.144ZM325.133 237.256C325.501 237.256 325.825 237.176 326.105 237.016C326.393 236.856 326.617 236.636 326.777 236.356C326.945 236.068 327.029 235.74 327.029 235.372C327.029 234.996 326.945 234.668 326.777 234.388C326.617 234.108 326.393 233.892 326.105 233.74C325.825 233.58 325.501 233.5 325.133 233.5C324.773 233.5 324.445 233.584 324.149 233.752C323.861 233.92 323.629 234.148 323.453 234.436C323.285 234.716 323.201 235.032 323.201 235.384C323.201 235.752 323.285 236.076 323.453 236.356C323.629 236.636 323.861 236.856 324.149 237.016C324.445 237.176 324.773 237.256 325.133 237.256Z" fill="white"/>
<path d="M345.31 238V229.6H346.486L349.402 235.492L352.318 229.6H353.506V238H352.498V231.412L349.786 236.848H349.03L346.318 231.436V238H345.31ZM354.79 238L357.886 229.6H358.954L362.038 238H360.958L358.414 230.86L355.846 238H354.79ZM356.206 235.84L356.494 235.024H360.298L360.586 235.84H356.206ZM363.31 238V229.6H365.65C366.634 229.6 367.442 229.772 368.074 230.116C368.714 230.452 369.186 230.936 369.49 231.568C369.802 232.192 369.958 232.944 369.958 233.824C369.958 234.688 369.802 235.432 369.49 236.056C369.186 236.68 368.714 237.16 368.074 237.496C367.442 237.832 366.634 238 365.65 238H363.31ZM364.318 237.16H365.626C366.442 237.16 367.09 237.028 367.57 236.764C368.05 236.492 368.394 236.108 368.602 235.612C368.81 235.108 368.914 234.512 368.914 233.824C368.914 233.12 368.81 232.516 368.602 232.012C368.394 231.508 368.05 231.12 367.57 230.848C367.09 230.576 366.442 230.44 365.626 230.44H364.318V237.16ZM371.908 238L375.112 230.464H370.504V229.6H376.144V230.356L372.976 238H371.908Z" fill="white"/>
<path d="M24.8383 174V173.292C25.4223 172.844 25.9743 172.392 26.4943 171.936C27.0143 171.48 27.4743 171.028 27.8743 170.58C28.2743 170.124 28.5903 169.68 28.8223 169.248C29.0543 168.816 29.1703 168.4 29.1703 168C29.1703 167.704 29.1143 167.432 29.0023 167.184C28.8983 166.928 28.7303 166.72 28.4983 166.56C28.2743 166.4 27.9663 166.32 27.5743 166.32C27.1983 166.32 26.8823 166.404 26.6263 166.572C26.3783 166.732 26.1903 166.948 26.0623 167.22C25.9343 167.484 25.8703 167.776 25.8703 168.096H24.8983C24.9063 167.544 25.0263 167.072 25.2583 166.68C25.4903 166.28 25.8063 165.976 26.2063 165.768C26.6143 165.56 27.0743 165.456 27.5863 165.456C28.0903 165.456 28.5343 165.552 28.9183 165.744C29.3103 165.928 29.6183 166.208 29.8423 166.584C30.0663 166.952 30.1783 167.412 30.1783 167.964C30.1783 168.356 30.0943 168.748 29.9263 169.14C29.7663 169.532 29.5463 169.916 29.2663 170.292C28.9943 170.66 28.6903 171.016 28.3543 171.36C28.0183 171.704 27.6743 172.028 27.3223 172.332C26.9703 172.636 26.6383 172.912 26.3263 173.16H30.4663V174H24.8383ZM34.9698 174.144C34.2498 174.144 33.6298 173.964 33.1098 173.604C32.5978 173.236 32.2018 172.728 31.9218 172.08C31.6418 171.424 31.5018 170.664 31.5018 169.8C31.5018 168.936 31.6418 168.18 31.9218 167.532C32.2018 166.876 32.5978 166.368 33.1098 166.008C33.6298 165.64 34.2498 165.456 34.9698 165.456C35.6898 165.456 36.3058 165.64 36.8178 166.008C37.3298 166.368 37.7258 166.876 38.0058 167.532C38.2858 168.18 38.4258 168.936 38.4258 169.8C38.4258 170.664 38.2858 171.424 38.0058 172.08C37.7258 172.728 37.3298 173.236 36.8178 173.604C36.3058 173.964 35.6898 174.144 34.9698 174.144ZM34.9698 173.256C35.4338 173.256 35.8458 173.12 36.2058 172.848C36.5738 172.568 36.8618 172.172 37.0698 171.66C37.2858 171.14 37.3938 170.52 37.3938 169.8C37.3938 169.072 37.2858 168.452 37.0698 167.94C36.8618 167.428 36.5738 167.036 36.2058 166.764C35.8458 166.492 35.4338 166.356 34.9698 166.356C34.5058 166.356 34.0858 166.492 33.7098 166.764C33.3418 167.036 33.0538 167.428 32.8458 167.94C32.6378 168.452 32.5338 169.072 32.5338 169.8C32.5338 170.52 32.6378 171.14 32.8458 171.66C33.0538 172.172 33.3418 172.568 33.7098 172.848C34.0858 173.12 34.5058 173.256 34.9698 173.256Z" fill="white"/>
<path d="M28.3296 134V132.2H24.0696V131.42L28.1496 125.6H29.3256V131.312H30.5736V132.2H29.3256V134H28.3296ZM25.1856 131.312H28.3776V126.716L25.1856 131.312ZM34.9698 134.144C34.2498 134.144 33.6298 133.964 33.1098 133.604C32.5978 133.236 32.2018 132.728 31.9218 132.08C31.6418 131.424 31.5018 130.664 31.5018 129.8C31.5018 128.936 31.6418 128.18 31.9218 127.532C32.2018 126.876 32.5978 126.368 33.1098 126.008C33.6298 125.64 34.2498 125.456 34.9698 125.456C35.6898 125.456 36.3058 125.64 36.8178 126.008C37.3298 126.368 37.7258 126.876 38.0058 127.532C38.2858 128.18 38.4258 128.936 38.4258 129.8C38.4258 130.664 38.2858 131.424 38.0058 132.08C37.7258 132.728 37.3298 133.236 36.8178 133.604C36.3058 133.964 35.6898 134.144 34.9698 134.144ZM34.9698 133.256C35.4338 133.256 35.8458 133.12 36.2058 132.848C36.5738 132.568 36.8618 132.172 37.0698 131.66C37.2858 131.14 37.3938 130.52 37.3938 129.8C37.3938 129.072 37.2858 128.452 37.0698 127.94C36.8618 127.428 36.5738 127.036 36.2058 126.764C35.8458 126.492 35.4338 126.356 34.9698 126.356C34.5058 126.356 34.0858 126.492 33.7098 126.764C33.3418 127.036 33.0538 127.428 32.8458 127.94C32.6378 128.452 32.5338 129.072 32.5338 129.8C32.5338 130.52 32.6378 131.14 32.8458 131.66C33.0538 132.172 33.3418 132.568 33.7098 132.848C34.0858 133.12 34.5058 133.256 34.9698 133.256Z" fill="white"/>
<path d="M27.3023 94.144C26.7023 94.144 26.1943 94.032 25.7783 93.808C25.3703 93.584 25.0423 93.28 24.7943 92.896C24.5463 92.512 24.3623 92.084 24.2423 91.612C24.1303 91.132 24.0743 90.64 24.0743 90.136C24.0743 89.208 24.2023 88.396 24.4583 87.7C24.7143 86.996 25.0823 86.448 25.5623 86.056C26.0503 85.656 26.6343 85.456 27.3143 85.456C27.8423 85.456 28.2943 85.56 28.6703 85.768C29.0543 85.968 29.3543 86.24 29.5703 86.584C29.7943 86.92 29.9303 87.296 29.9783 87.712H29.0423C28.9623 87.272 28.7703 86.932 28.4663 86.692C28.1623 86.452 27.7743 86.332 27.3023 86.332C26.8783 86.332 26.4983 86.464 26.1623 86.728C25.8343 86.992 25.5703 87.388 25.3703 87.916C25.1783 88.444 25.0663 89.12 25.0343 89.944C25.0343 89.96 25.0343 89.976 25.0343 89.992C25.0343 90.008 25.0343 90.024 25.0343 90.04C25.1543 89.784 25.3263 89.552 25.5503 89.344C25.7823 89.128 26.0583 88.956 26.3783 88.828C26.6983 88.692 27.0503 88.624 27.4343 88.624C27.9143 88.624 28.3583 88.736 28.7663 88.96C29.1823 89.184 29.5143 89.5 29.7623 89.908C30.0183 90.308 30.1463 90.78 30.1463 91.324C30.1463 91.796 30.0303 92.248 29.7983 92.68C29.5743 93.112 29.2503 93.464 28.8263 93.736C28.4023 94.008 27.8943 94.144 27.3023 94.144ZM27.2303 93.256C27.5983 93.256 27.9223 93.176 28.2023 93.016C28.4903 92.856 28.7143 92.636 28.8743 92.356C29.0423 92.068 29.1263 91.74 29.1263 91.372C29.1263 90.996 29.0423 90.668 28.8743 90.388C28.7143 90.108 28.4903 89.892 28.2023 89.74C27.9223 89.58 27.5983 89.5 27.2303 89.5C26.8703 89.5 26.5423 89.584 26.2463 89.752C25.9583 89.92 25.7263 90.148 25.5503 90.436C25.3823 90.716 25.2983 91.032 25.2983 91.384C25.2983 91.752 25.3823 92.076 25.5503 92.356C25.7263 92.636 25.9583 92.856 26.2463 93.016C26.5423 93.176 26.8703 93.256 27.2303 93.256ZM34.9698 94.144C34.2498 94.144 33.6298 93.964 33.1098 93.604C32.5978 93.236 32.2018 92.728 31.9218 92.08C31.6418 91.424 31.5018 90.664 31.5018 89.8C31.5018 88.936 31.6418 88.18 31.9218 87.532C32.2018 86.876 32.5978 86.368 33.1098 86.008C33.6298 85.64 34.2498 85.456 34.9698 85.456C35.6898 85.456 36.3058 85.64 36.8178 86.008C37.3298 86.368 37.7258 86.876 38.0058 87.532C38.2858 88.18 38.4258 88.936 38.4258 89.8C38.4258 90.664 38.2858 91.424 38.0058 92.08C37.7258 92.728 37.3298 93.236 36.8178 93.604C36.3058 93.964 35.6898 94.144 34.9698 94.144ZM34.9698 93.256C35.4338 93.256 35.8458 93.12 36.2058 92.848C36.5738 92.568 36.8618 92.172 37.0698 91.66C37.2858 91.14 37.3938 90.52 37.3938 89.8C37.3938 89.072 37.2858 88.452 37.0698 87.94C36.8618 87.428 36.5738 87.036 36.2058 86.764C35.8458 86.492 35.4338 86.356 34.9698 86.356C34.5058 86.356 34.0858 86.492 33.7098 86.764C33.3418 87.036 33.0538 87.428 32.8458 87.94C32.6378 88.452 32.5338 89.072 32.5338 89.8C32.5338 90.52 32.6378 91.14 32.8458 91.66C33.0538 92.172 33.3418 92.568 33.7098 92.848C34.0858 93.12 34.5058 93.256 34.9698 93.256Z" fill="white"/>
<path d="M27.2727 54.144C26.7367 54.144 26.2527 54.044 25.8207 53.844C25.3887 53.636 25.0447 53.352 24.7887 52.992C24.5407 52.624 24.4167 52.2 24.4167 51.72C24.4167 51.376 24.4847 51.056 24.6207 50.76C24.7567 50.464 24.9407 50.208 25.1727 49.992C25.4127 49.768 25.6927 49.612 26.0127 49.524C25.5807 49.364 25.2407 49.116 24.9927 48.78C24.7527 48.444 24.6327 48.08 24.6327 47.688C24.6327 47.272 24.7367 46.896 24.9447 46.56C25.1607 46.224 25.4647 45.956 25.8567 45.756C26.2567 45.556 26.7287 45.456 27.2727 45.456C27.8247 45.456 28.2967 45.556 28.6887 45.756C29.0887 45.956 29.3927 46.224 29.6007 46.56C29.8087 46.896 29.9127 47.272 29.9127 47.688C29.9127 48.08 29.7927 48.444 29.5527 48.78C29.3127 49.116 28.9727 49.364 28.5327 49.524C28.8607 49.612 29.1407 49.768 29.3727 49.992C29.6127 50.208 29.7967 50.464 29.9247 50.76C30.0607 51.056 30.1287 51.376 30.1287 51.72C30.1287 52.2 30.0047 52.624 29.7567 52.992C29.5087 53.352 29.1687 53.636 28.7367 53.844C28.3047 54.044 27.8167 54.144 27.2727 54.144ZM27.2727 53.256C27.8967 53.256 28.3607 53.112 28.6647 52.824C28.9687 52.528 29.1207 52.14 29.1207 51.66C29.1207 51.116 28.9527 50.704 28.6167 50.424C28.2807 50.144 27.8327 50.004 27.2727 50.004C26.7207 50.004 26.2727 50.144 25.9287 50.424C25.5927 50.704 25.4247 51.116 25.4247 51.66C25.4247 52.14 25.5767 52.528 25.8807 52.824C26.1927 53.112 26.6567 53.256 27.2727 53.256ZM27.2727 49.164C27.7687 49.164 28.1607 49.032 28.4487 48.768C28.7447 48.504 28.8927 48.164 28.8927 47.748C28.8927 47.276 28.7487 46.92 28.4607 46.68C28.1727 46.44 27.7767 46.32 27.2727 46.32C26.7767 46.32 26.3847 46.44 26.0967 46.68C25.8087 46.92 25.6647 47.276 25.6647 47.748C25.6647 48.164 25.8087 48.504 26.0967 48.768C26.3927 49.032 26.7847 49.164 27.2727 49.164ZM34.9698 54.144C34.2498 54.144 33.6298 53.964 33.1098 53.604C32.5978 53.236 32.2018 52.728 31.9218 52.08C31.6418 51.424 31.5018 50.664 31.5018 49.8C31.5018 48.936 31.6418 48.18 31.9218 47.532C32.2018 46.876 32.5978 46.368 33.1098 46.008C33.6298 45.64 34.2498 45.456 34.9698 45.456C35.6898 45.456 36.3058 45.64 36.8178 46.008C37.3298 46.368 37.7258 46.876 38.0058 47.532C38.2858 48.18 38.4258 48.936 38.4258 49.8C38.4258 50.664 38.2858 51.424 38.0058 52.08C37.7258 52.728 37.3298 53.236 36.8178 53.604C36.3058 53.964 35.6898 54.144 34.9698 54.144ZM34.9698 53.256C35.4338 53.256 35.8458 53.12 36.2058 52.848C36.5738 52.568 36.8618 52.172 37.0698 51.66C37.2858 51.14 37.3938 50.52 37.3938 49.8C37.3938 49.072 37.2858 48.452 37.0698 47.94C36.8618 47.428 36.5738 47.036 36.2058 46.764C35.8458 46.492 35.4338 46.356 34.9698 46.356C34.5058 46.356 34.0858 46.492 33.7098 46.764C33.3418 47.036 33.0538 47.428 32.8458 47.94C32.6378 48.452 32.5338 49.072 32.5338 49.8C32.5338 50.52 32.6378 51.14 32.8458 51.66C33.0538 52.172 33.3418 52.568 33.7098 52.848C34.0858 53.12 34.5058 53.256 34.9698 53.256Z" fill="white"/>
<path d="M52 50H368" stroke="#F1F1F1" stroke-linecap="round"/>
<path d="M52 90H368" stroke="#F1F1F1" stroke-linecap="round"/>
<path d="M52 130H368" stroke="#F1F1F1" stroke-linecap="round"/>
<path d="M52 170H368" stroke="#F1F1F1" stroke-linecap="round"/>
<path d="M52 210H368" stroke="#F1F1F1" stroke-linecap="round"/>
<path d="M203 121C203 118.791 204.791 117 207 117C209.209 117 211 118.791 211 121V210H203V121Z" fill="#DA393B"/>
<path d="M259 174C259 171.791 260.791 170 263 170C265.209 170 267 171.791 267 174V210H259V174Z" fill="#DA393B"/>
<path d="M308 169C308 166.791 309.791 165 312 165C314.209 165 316 166.791 316 169V210H308V169Z" fill="#DA393B"/>
<path d="M356 82C356 79.7909 357.791 78 360 78C362.209 78 364 79.7909 364 82V210H356V82Z" fill="#DA393B"/>
<path d="M148 92C148 89.7909 149.791 88 152 88C154.209 88 156 89.7909 156 92V210H148V92Z" fill="#DA393B"/>
<path d="M93 127C93 124.791 94.7909 123 97 123C99.2091 123 101 124.791 101 127V210H93V127Z" fill="#DA393B"/>
<g filter="url(#filter0_d_1182_1308)">
<path fill-rule="evenodd" clip-rule="evenodd" d="M339.152 24.9683L342.031 20.7228C342.428 20.138 343.29 20.138 343.687 20.7228L346.566 24.9683H387C388.105 24.9683 389 25.8637 389 26.9683V68.0004C389 69.1049 388.105 70.0004 387 70.0004H332C330.895 70.0004 330 69.1049 330 68.0004V26.9683C330 25.8637 330.895 24.9683 332 24.9683H339.152Z" fill="white"/>
</g>
<path d="M341.78 40.9648L340.25 35.7448H341.09L342.24 39.9548H342.21L343.43 35.7448H344.38L345.62 39.9448H345.59L346.73 35.7448H347.58L346.05 40.9648H345.19L343.9 36.5748H343.93L342.64 40.9648H341.78ZM348.622 40.9648V35.7448H349.462V40.9648H348.622ZM349.042 34.7348C348.875 34.7348 348.735 34.6815 348.622 34.5748C348.515 34.4615 348.462 34.3215 348.462 34.1548C348.462 33.9882 348.515 33.8548 348.622 33.7548C348.735 33.6482 348.875 33.5948 349.042 33.5948C349.202 33.5948 349.339 33.6482 349.452 33.7548C349.565 33.8548 349.622 33.9882 349.622 34.1548C349.622 34.3215 349.565 34.4615 349.452 34.5748C349.339 34.6815 349.202 34.7348 349.042 34.7348ZM350.954 40.9648V35.7448H351.714L351.754 36.5848C351.907 36.2848 352.127 36.0515 352.414 35.8848C352.707 35.7115 353.044 35.6248 353.424 35.6248C353.817 35.6248 354.157 35.7015 354.444 35.8548C354.731 36.0015 354.954 36.2282 355.114 36.5348C355.274 36.8348 355.354 37.2182 355.354 37.6848V40.9648H354.514V37.7748C354.514 37.3015 354.397 36.9448 354.164 36.7048C353.937 36.4648 353.627 36.3448 353.234 36.3448C352.974 36.3448 352.734 36.4082 352.514 36.5348C352.294 36.6615 352.117 36.8482 351.984 37.0948C351.857 37.3348 351.794 37.6315 351.794 37.9848V40.9648H350.954ZM356.726 40.9648V35.7448H357.486L357.526 36.5848C357.679 36.2848 357.899 36.0515 358.186 35.8848C358.479 35.7115 358.816 35.6248 359.196 35.6248C359.589 35.6248 359.929 35.7015 360.216 35.8548C360.502 36.0015 360.726 36.2282 360.886 36.5348C361.046 36.8348 361.126 37.2182 361.126 37.6848V40.9648H360.286V37.7748C360.286 37.3015 360.169 36.9448 359.936 36.7048C359.709 36.4648 359.399 36.3448 359.006 36.3448C358.746 36.3448 358.506 36.4082 358.286 36.5348C358.066 36.6615 357.889 36.8482 357.756 37.0948C357.629 37.3348 357.566 37.6315 357.566 37.9848V40.9648H356.726ZM364.677 41.0848C364.21 41.0848 363.797 40.9715 363.437 40.7448C363.077 40.5182 362.794 40.2015 362.587 39.7948C362.387 39.3815 362.287 38.9015 362.287 38.3548C362.287 37.8082 362.387 37.3315 362.587 36.9248C362.794 36.5115 363.077 36.1915 363.437 35.9648C363.804 35.7382 364.224 35.6248 364.697 35.6248C365.204 35.6248 365.627 35.7382 365.967 35.9648C366.307 36.1915 366.564 36.4948 366.737 36.8748C366.917 37.2482 367.007 37.6582 367.007 38.1048C367.007 38.1715 367.007 38.2382 367.007 38.3048C367.007 38.3715 367.004 38.4515 366.997 38.5448H362.917V37.8948H366.187C366.174 37.3948 366.024 37.0115 365.737 36.7448C365.457 36.4715 365.104 36.3348 364.677 36.3348C364.397 36.3348 364.137 36.4048 363.897 36.5448C363.664 36.6782 363.474 36.8782 363.327 37.1448C363.18 37.4048 363.107 37.7315 363.107 38.1248V38.4048C363.107 38.8382 363.18 39.2015 363.327 39.4948C363.474 39.7882 363.664 40.0082 363.897 40.1548C364.137 40.3015 364.397 40.3748 364.677 40.3748C365.05 40.3748 365.344 40.3015 365.557 40.1548C365.777 40.0082 365.937 39.8015 366.037 39.5348H366.867C366.787 39.8282 366.647 40.0948 366.447 40.3348C366.254 40.5682 366.007 40.7515 365.707 40.8848C365.414 41.0182 365.07 41.0848 364.677 41.0848ZM368.161 40.9648V35.7448H368.921L368.981 36.7048C369.101 36.4715 369.255 36.2748 369.441 36.1148C369.635 35.9548 369.865 35.8348 370.131 35.7548C370.405 35.6682 370.711 35.6248 371.051 35.6248V36.5048H370.571C370.371 36.5048 370.178 36.5348 369.991 36.5948C369.805 36.6482 369.635 36.7348 369.481 36.8548C369.335 36.9748 369.218 37.1415 369.131 37.3548C369.045 37.5615 369.001 37.8215 369.001 38.1348V40.9648H368.161Z" fill="#707070"/>
<path d="M344.592 60.1328C343.873 60.1328 343.267 60.0022 342.772 59.7408C342.287 59.4702 341.895 59.1108 341.596 58.6628C341.297 58.2055 341.078 57.7015 340.938 57.1508C340.807 56.5908 340.742 56.0168 340.742 55.4288C340.742 54.3462 340.891 53.3988 341.19 52.5868C341.498 51.7748 341.937 51.1402 342.506 50.6828C343.075 50.2255 343.761 49.9968 344.564 49.9968C345.208 49.9968 345.754 50.1228 346.202 50.3748C346.659 50.6175 347.014 50.9442 347.266 51.3548C347.527 51.7655 347.686 52.2182 347.742 52.7128H346.44C346.356 52.2275 346.146 51.8542 345.81 51.5928C345.483 51.3222 345.063 51.1868 344.55 51.1868C344.093 51.1868 343.682 51.3315 343.318 51.6208C342.954 51.9008 342.665 52.3302 342.45 52.9088C342.245 53.4875 342.128 54.2202 342.1 55.1068C342.1 55.1162 342.1 55.1302 342.1 55.1488C342.1 55.1675 342.1 55.1862 342.1 55.2048C342.24 54.9248 342.441 54.6682 342.702 54.4348C342.963 54.2015 343.271 54.0195 343.626 53.8888C343.99 53.7488 344.382 53.6788 344.802 53.6788C345.353 53.6788 345.866 53.8095 346.342 54.0708C346.827 54.3228 347.219 54.6868 347.518 55.1628C347.817 55.6388 347.966 56.1942 347.966 56.8288C347.966 57.3982 347.826 57.9348 347.546 58.4388C347.275 58.9428 346.888 59.3535 346.384 59.6708C345.88 59.9788 345.283 60.1328 344.592 60.1328ZM344.494 58.9148C344.895 58.9148 345.25 58.8308 345.558 58.6628C345.875 58.4855 346.123 58.2428 346.3 57.9348C346.487 57.6268 346.58 57.2768 346.58 56.8848C346.58 56.4835 346.487 56.1335 346.3 55.8348C346.123 55.5268 345.875 55.2888 345.558 55.1208C345.25 54.9528 344.895 54.8688 344.494 54.8688C344.093 54.8688 343.733 54.9622 343.416 55.1488C343.099 55.3262 342.847 55.5688 342.66 55.8768C342.473 56.1755 342.38 56.5162 342.38 56.8988C342.38 57.2908 342.473 57.6408 342.66 57.9488C342.847 58.2475 343.099 58.4855 343.416 58.6628C343.743 58.8308 344.102 58.9148 344.494 58.9148ZM349.344 59.9648V58.9568C349.997 58.4528 350.618 57.9442 351.206 57.4308C351.794 56.9175 352.316 56.4088 352.774 55.9048C353.24 55.3915 353.604 54.8922 353.866 54.4068C354.127 53.9122 354.258 53.4408 354.258 52.9928C354.258 52.6755 354.202 52.3815 354.09 52.1108C353.978 51.8402 353.8 51.6208 353.558 51.4528C353.315 51.2755 352.984 51.1868 352.564 51.1868C352.162 51.1868 351.826 51.2755 351.556 51.4528C351.294 51.6302 351.094 51.8682 350.954 52.1668C350.823 52.4562 350.758 52.7782 350.758 53.1328H349.4C349.409 52.4608 349.554 51.8915 349.834 51.4248C350.114 50.9582 350.492 50.6035 350.968 50.3608C351.453 50.1182 351.994 49.9968 352.592 49.9968C353.217 49.9968 353.758 50.1135 354.216 50.3468C354.673 50.5708 355.028 50.9022 355.28 51.3408C355.532 51.7702 355.658 52.2975 355.658 52.9228C355.658 53.3708 355.569 53.8188 355.392 54.2668C355.214 54.7055 354.972 55.1348 354.664 55.5548C354.365 55.9748 354.029 56.3808 353.656 56.7728C353.282 57.1555 352.895 57.5195 352.494 57.8648C352.102 58.2102 351.724 58.5228 351.36 58.8028H355.966V59.9648H349.344Z" fill="#1F1F1F"/>
<defs>
<filter id="filter0_d_1182_1308" x="310" y="0.28418" width="107" height="97.7158" filterUnits="userSpaceOnUse" color-interpolation-filters="sRGB">
<feFlood flood-opacity="0" result="BackgroundImageFix"/>
<feColorMatrix in="SourceAlpha" type="matrix" values="0 0 0 0 0 0 0 0 0 0 0 0 0 0 0 0 0 0 127 0" result="hardAlpha"/>
<feOffset dx="4" dy="4"/>
<feGaussianBlur stdDeviation="12"/>
<feComposite in2="hardAlpha" operator="out"/>
<feColorMatrix type="matrix" values="0 0 0 0 0.283333 0 0 0 0 0.283333 0 0 0 0 0.283333 0 0 0 0.15 0"/>
<feBlend mode="normal" in2="BackgroundImageFix" result="effect1_dropShadow_1182_1308"/>
<feBlend mode="normal" in="SourceGraphic" in2="effect1_dropShadow_1182_1308" result="shape"/>
</filter>
</defs>
</svg>
