<svg width="24" height="24" viewBox="0 0 24 24" fill="none" xmlns="http://www.w3.org/2000/svg">
<path d="M12.001 0C5.37162 0 0 5.3725 0 12.0023C0 18.6282 5.37162 24.0003 12.001 24.0003C18.6314 24.0003 24 18.6282 24 12.0023C24 5.37217 18.6314 0 12.001 0ZM17.2487 15.5119C17.7056 15.9837 17.5645 16.8629 16.9309 17.4772C16.2978 18.0914 15.4144 18.2091 14.9565 17.7373L11.9655 14.6578L8.88478 17.6485C8.41395 18.1054 7.53458 17.9622 6.92029 17.3301C6.30599 16.698 6.18936 15.8147 6.66019 15.3568L9.74095 12.3661L6.74998 9.28559C6.29307 8.8148 6.43654 7.93451 7.06872 7.32026C7.69992 6.70701 8.58525 6.59006 9.04117 7.06019L12.0321 10.1404L15.1139 7.15097C15.5857 6.6931 16.4651 6.83622 17.0784 7.46836C17.6937 8.1005 17.8093 8.98476 17.3385 9.44263L14.2587 12.4324L17.2487 15.5119Z" fill="#979797"/>
</svg>
