<svg width="82" height="82" viewBox="0 0 82 82" fill="none" xmlns="http://www.w3.org/2000/svg">
<path d="M41 0C18.3859 0 0 18.3859 0 41C0 63.6141 18.3859 82 41 82C63.6141 82 82 63.6141 82 41C82 18.3859 63.6141 0 41 0Z" fill="#DA393B"/>
<path d="M44.4113 61.4999C44.4113 63.3898 42.8738 64.9113 41 64.9113C39.1261 64.9113 37.5886 63.3738 37.5886 61.4999C37.5886 59.6261 39.1261 58.0886 41 58.0886C42.8738 58.0886 44.4113 59.6101 44.4113 61.4999Z" fill="white"/>
<path d="M46.4132 43.1942C45.196 43.7547 44.4273 44.9719 44.4273 46.3012V47.8387C44.4273 49.7286 42.9058 51.25 41.016 51.25C39.1261 51.25 37.6046 49.7125 37.6046 47.8387V46.3012C37.6046 42.3133 39.9429 38.6618 43.5625 36.9801C47.0378 35.3786 49.5523 31.1184 49.5523 29.0364C49.5523 24.3278 45.7246 20.5 41.016 20.5C36.3074 20.5 32.4796 24.3278 32.4796 29.0364C32.4796 30.9262 30.9582 32.4477 29.0683 32.4477C27.1785 32.4477 25.657 30.9102 25.657 29.0364C25.657 20.5641 32.5597 13.6614 41.032 13.6614C49.5043 13.6614 56.407 20.5641 56.407 29.0364C56.375 33.6649 52.371 40.4395 46.4132 43.1942Z" fill="white"/>
</svg>
