<svg width="16" height="18" viewBox="0 0 16 18" fill="none" xmlns="http://www.w3.org/2000/svg">
<path d="M14.8811 2.99999H12.6071C12.2561 1.25518 10.755 0.00225 9.01274 0H7.54565C5.80342 0.00225 4.30226 1.25518 3.95133 2.99999H1.67737C1.27225 2.99999 0.943848 3.33577 0.943848 3.74998C0.943848 4.16419 1.27225 4.5 1.67737 4.5H2.4109V14.25C2.41334 16.32 4.054 17.9975 6.0786 18H10.4798C12.5044 17.9975 14.1451 16.32 14.1475 14.25V4.5H14.8811C15.2862 4.5 15.6146 4.16422 15.6146 3.75001C15.6146 3.3358 15.2862 2.99999 14.8811 2.99999ZM7.54569 12.75C7.54569 13.1642 7.21728 13.5 6.81216 13.5C6.40701 13.5 6.0786 13.1642 6.0786 12.75V8.25001C6.0786 7.8358 6.40701 7.50002 6.81213 7.50002C7.21724 7.50002 7.54565 7.8358 7.54565 8.25001V12.75H7.54569ZM10.4798 12.75C10.4798 13.1642 10.1514 13.5 9.7463 13.5C9.34118 13.5 9.01277 13.1642 9.01277 12.75V8.25001C9.01277 7.8358 9.34118 7.50002 9.7463 7.50002C10.1514 7.50002 10.4798 7.8358 10.4798 8.25001V12.75ZM5.47051 2.99999C5.78251 2.10171 6.61338 1.50114 7.54569 1.49998H9.01277C9.94508 1.50114 10.7759 2.10171 11.088 2.99999H5.47051Z" fill="#DA393B"/>
</svg>
