<svg width="19" height="19" viewBox="0 0 19 19" fill="none" xmlns="http://www.w3.org/2000/svg">
<path fill-rule="evenodd" clip-rule="evenodd" d="M1.58333 0C1.16341 0 0.76068 0.166815 0.463748 0.463748C0.166815 0.76068 0 1.16341 0 1.58333V17.4167C0 17.8366 0.166815 18.2393 0.463748 18.5363C0.76068 18.8332 1.16341 19 1.58333 19H17.4167C17.8366 19 18.2393 18.8332 18.5363 18.5363C18.8332 18.2393 19 17.8366 19 17.4167V1.58333C19 1.16341 18.8332 0.76068 18.5363 0.463748C18.2393 0.166815 17.8366 0 17.4167 0H1.58333ZM13.7222 5.27778H12.1389V13.7222H13.7222V5.27778ZM14.7778 6.86111H16.3611V8.97222H16.8889V10.0278H16.3611V12.1389H14.7778V6.86111ZM5.27778 13.7222H6.86111V5.27778H5.27778V13.7222ZM4.22222 12.1389H2.63889V10.0278H2.11111V8.97222H2.63889V6.86111H4.22222V12.1389ZM7.91667 10.0278H11.0833V8.97222H7.91667V10.0278Z" fill="white"/>
</svg>
