<svg width="13" height="14" viewBox="0 0 13 14" fill="none" xmlns="http://www.w3.org/2000/svg">
<path fill-rule="evenodd" clip-rule="evenodd" d="M6.08812 0.826828C6.11538 0.946906 6.11873 1.07118 6.09796 1.19255C6.07719 1.31392 6.03271 1.43001 5.96707 1.53419C5.90143 1.63837 5.8159 1.7286 5.71539 1.79972C5.61487 1.87084 5.50133 1.92147 5.38124 1.9487C5.26582 1.97495 5.15207 2.00537 5.03999 2.03995C4.92233 2.07631 4.79867 2.08914 4.67605 2.07771C4.55344 2.06628 4.43428 2.0308 4.32537 1.97332C4.21647 1.91583 4.11995 1.83746 4.04133 1.74267C3.96272 1.64789 3.90354 1.53855 3.86718 1.42089C3.83082 1.30323 3.81799 1.17957 3.82942 1.05695C3.84085 0.934339 3.87633 0.815178 3.93381 0.706272C3.9913 0.597366 4.06967 0.500849 4.16446 0.422232C4.25924 0.343615 4.36858 0.284437 4.48624 0.248078C4.64374 0.199328 4.80353 0.156619 4.96562 0.119953C5.08569 0.0926864 5.20997 0.0893425 5.33134 0.110112C5.45271 0.130881 5.5688 0.175357 5.67298 0.240999C5.77716 0.306641 5.86739 0.392163 5.93851 0.49268C6.00963 0.593198 6.06026 0.706742 6.08749 0.826828M6.75874 0.826828C6.81388 0.584419 6.96305 0.373837 7.17343 0.241394C7.38382 0.108951 7.63819 0.0654932 7.88062 0.120578C10.8037 0.782453 12.9862 3.39495 12.9862 6.51995C12.9862 10.1443 10.0481 13.0825 6.42374 13.0825C3.29936 13.0825 0.686865 10.9 0.0237401 7.97745C-0.0312923 7.73495 0.012265 7.48051 0.14483 7.27012C0.277395 7.05972 0.488108 6.91061 0.730615 6.85558C0.973122 6.80055 1.22756 6.8441 1.43795 6.97667C1.64834 7.10923 1.79746 7.31995 1.85249 7.56245C2.03904 8.37903 2.44099 9.1307 3.01652 9.73928C3.59205 10.3479 4.32014 10.7911 5.12504 11.0229C5.92994 11.2547 6.78225 11.2666 7.59331 11.0573C8.40437 10.8481 9.14453 10.4253 9.73682 9.83303C10.3291 9.24075 10.7519 8.50058 10.9611 7.68952C11.1704 6.87847 11.1585 6.02616 10.9267 5.22125C10.6949 4.41635 10.2516 3.68826 9.64307 3.11273C9.03449 2.5372 8.28282 2.13525 7.46624 1.9487C7.22383 1.89356 7.01325 1.74439 6.88081 1.53401C6.74836 1.32362 6.70491 1.06925 6.75999 0.826828M3.28624 1.75808C3.45514 1.94037 3.54475 2.18228 3.53538 2.43061C3.526 2.67895 3.41841 2.91341 3.23624 3.08245C3.14999 3.16281 3.0666 3.2462 2.98624 3.33245C2.90252 3.42274 2.80184 3.49565 2.68995 3.54702C2.57805 3.59839 2.45713 3.62723 2.3341 3.63187C2.21106 3.63651 2.08831 3.61688 1.97286 3.57408C1.85741 3.53129 1.75152 3.46617 1.66124 3.38245C1.57096 3.29873 1.49805 3.19805 1.44667 3.08616C1.3953 2.97426 1.36647 2.85335 1.36182 2.73031C1.35718 2.60727 1.37682 2.48452 1.41961 2.36907C1.46241 2.25363 1.52752 2.14774 1.61124 2.05745C1.72374 1.93662 1.84041 1.81995 1.96124 1.70745C2.05152 1.62372 2.15741 1.5586 2.27286 1.5158C2.38831 1.473 2.51106 1.45336 2.6341 1.458C2.75714 1.46264 2.87806 1.49148 2.98995 1.54286C3.10185 1.59424 3.20253 1.66778 3.28624 1.75808ZM6.42374 2.45745C6.67238 2.45745 6.91084 2.55622 7.08665 2.73204C7.26247 2.90786 7.36124 3.14631 7.36124 3.39495V6.13183L8.96124 7.73183C9.05082 7.81827 9.12229 7.92168 9.17148 8.03604C9.22066 8.15039 9.24658 8.2734 9.24772 8.39788C9.24886 8.52236 9.2252 8.64582 9.17812 8.76105C9.13103 8.87629 9.06147 8.981 8.97349 9.06906C8.8855 9.15713 8.78086 9.22679 8.66567 9.27398C8.55048 9.32118 8.42704 9.34495 8.30256 9.34393C8.17808 9.34291 8.05505 9.31711 7.94065 9.26803C7.82625 9.21895 7.72276 9.14758 7.63624 9.05808L5.76124 7.18308C5.67409 7.09603 5.60494 6.99266 5.55775 6.87888C5.51057 6.7651 5.48627 6.64313 5.48624 6.51995V3.39495C5.48624 3.14631 5.58501 2.90786 5.76083 2.73204C5.93664 2.55622 6.1751 2.45745 6.42374 2.45745ZM1.32374 3.9637C1.44146 3.99994 1.55089 4.05902 1.64577 4.13757C1.74065 4.21611 1.81913 4.31259 1.8767 4.42148C1.93428 4.53036 1.96984 4.64953 1.98134 4.77217C1.99284 4.89481 1.98007 5.01851 1.94374 5.1362C1.90931 5.24884 1.87888 5.36266 1.85249 5.47745C1.79746 5.71996 1.64834 5.93067 1.43795 6.06324C1.22756 6.1958 0.973122 6.23936 0.730615 6.18433C0.488108 6.1293 0.277395 5.98018 0.14483 5.76979C0.012265 5.5594 -0.0312923 5.30496 0.0237401 5.06245C0.0604068 4.89995 0.103115 4.74016 0.151865 4.58308C0.188166 4.46541 0.247293 4.35605 0.325868 4.26123C0.404443 4.16642 0.500927 4.08802 0.609809 4.0305C0.718691 3.97299 0.837837 3.93748 0.960442 3.92602C1.08305 3.91456 1.20671 3.92736 1.32437 3.9637" fill="#DA393B"/>
</svg>
