<svg width="30" height="30" viewBox="0 0 30 30" fill="none" xmlns="http://www.w3.org/2000/svg">
<circle cx="15" cy="15" r="15" fill="#DA393B"/>
<g clip-path="url(#clip0_914_52)">
<path d="M9.60013 18.1665L8.60116 20.6835C8.57237 20.756 8.56033 20.837 8.56654 20.9164C8.57275 20.9958 8.59693 21.0701 8.63609 21.1302C8.67525 21.1902 8.72765 21.2333 8.78682 21.2542C8.84598 21.275 8.90929 21.2727 8.96891 21.2475L11.039 20.3721C11.369 20.2327 11.6764 20.0092 11.9426 19.7151L19.5296 11.3262C19.806 11.0206 19.9817 10.5904 20.018 10.1302C20.0543 9.67004 19.9483 9.2176 19.7232 8.87242C19.4981 8.52724 19.1724 8.31761 18.8178 8.28963C18.4632 8.26165 18.1087 8.41763 17.8323 8.72324L10.2446 17.112C9.97856 17.4064 9.7593 17.7651 9.60013 18.1665Z" fill="white"/>
</g>
<defs>
<clipPath id="clip0_914_52">
<rect width="12.6454" height="16.4095" fill="white" transform="translate(8.854 5.9574) rotate(4.5109)"/>
</clipPath>
</defs>
</svg>
