<svg width="19" height="18" viewBox="0 0 19 18" fill="none" xmlns="http://www.w3.org/2000/svg">
<path d="M13.7842 14.25V17.775C14.302 17.5935 14.773 17.2951 15.1625 16.902L17.1108 14.9085C17.4958 14.5108 17.7879 14.0293 17.9654 13.5H14.5178C14.3232 13.5 14.1366 13.579 13.9991 13.7197C13.8615 13.8603 13.7842 14.0511 13.7842 14.25Z" fill="white"/>
<path d="M5.84149 10.371C5.56892 10.6496 5.35271 10.9804 5.2052 11.3444C5.05769 11.7085 4.98177 12.0987 4.98179 12.4928V13.5H5.96693C6.35234 13.5 6.73397 13.4224 7.09004 13.2716C7.4461 13.1208 7.76962 12.8997 8.0421 12.621L16.3516 4.125C16.6434 3.82663 16.8074 3.42196 16.8074 3C16.8074 2.57804 16.6434 2.17337 16.3516 1.875C16.0598 1.57663 15.664 1.40901 15.2513 1.40901C14.8386 1.40901 14.4428 1.57663 14.151 1.875L5.84149 10.371Z" fill="white"/>
<path d="M18.1854 3.714C18.0605 4.27035 17.7862 4.77999 17.3932 5.1855L9.07932 13.6823C8.67152 14.1014 8.18646 14.4337 7.65222 14.6599C7.11798 14.8861 6.54516 15.0017 5.96693 15H4.98179C4.59269 15 4.21954 14.842 3.94441 14.5607C3.66928 14.2794 3.51471 13.8978 3.51471 13.5V12.4928C3.51311 11.9016 3.62626 11.316 3.84762 10.7699C4.06898 10.2237 4.39415 9.72795 4.80427 9.31125L13.1138 0.8145C13.5074 0.412154 14.003 0.130079 14.5449 0C14.5354 0 14.5273 0 14.5178 0H4.24825C3.27588 0.00119089 2.34366 0.396661 1.65609 1.09966C0.968521 1.80267 0.581731 2.7558 0.580566 3.75V14.25C0.581731 15.2442 0.968521 16.1973 1.65609 16.9003C2.34366 17.6033 3.27588 17.9988 4.24825 18H12.3172V14.25C12.3172 13.6533 12.549 13.081 12.9617 12.659C13.3744 12.2371 13.9341 12 14.5178 12H18.1854V3.75C18.1854 3.738 18.1854 3.72675 18.1854 3.714Z" fill="white"/>
</svg>
