<svg width="242" height="237" viewBox="0 0 242 237" fill="none" xmlns="http://www.w3.org/2000/svg">
<path d="M153.629 53.2976H88.4208C86.9349 53.2994 85.5102 53.8925 84.4595 54.9467C83.4087 56.0009 82.8176 57.4302 82.8158 58.9211V204.325L82.0685 204.554L66.0718 209.468C65.3137 209.7 64.4948 209.621 63.795 209.248C63.0951 208.875 62.5715 208.238 62.339 207.478L14.7562 51.5394C14.5246 50.7787 14.6035 49.957 14.9756 49.2547C15.3477 48.5524 15.9824 48.0271 16.7404 47.7941L41.3912 40.2212L112.855 18.2748L137.506 10.7018C137.881 10.586 138.275 10.5455 138.666 10.5827C139.057 10.6199 139.436 10.7341 139.783 10.9186C140.13 11.1032 140.437 11.3545 140.686 11.6583C140.936 11.962 141.124 12.3122 141.239 12.6888L153.401 52.5478L153.629 53.2976Z" fill="white"/>
<path d="M167.859 52.5477L153.2 4.50839C152.956 3.70797 152.557 2.96361 152.026 2.31784C151.496 1.67207 150.843 1.13755 150.107 0.744832C149.37 0.352112 148.563 0.10888 147.733 0.0290463C146.902 -0.0507875 146.064 0.0343405 145.267 0.279557L110.609 10.9229L39.1493 32.8731L4.49171 43.5202C2.8817 44.0162 1.53362 45.1328 0.743366 46.625C-0.0468864 48.1172 -0.214747 49.863 0.276637 51.4792L50.3779 215.658C50.7771 216.962 51.5825 218.104 52.676 218.916C53.7695 219.728 55.0935 220.167 56.4538 220.168C57.0834 220.168 57.7094 220.073 58.3108 219.887L82.0686 212.591L82.8159 212.359V211.575L82.0686 211.804L58.0904 219.171C56.6693 219.605 55.1344 219.457 53.8223 218.757C52.5103 218.058 51.5282 216.865 51.0916 215.44L0.99423 51.2581C0.77791 50.5521 0.702517 49.8102 0.772365 49.075C0.842213 48.3398 1.05592 47.6256 1.40127 46.9733C1.74662 46.3211 2.21683 45.7436 2.78495 45.2739C3.35307 44.8042 4.00795 44.4516 4.7121 44.2362L39.3697 33.5892L110.83 11.6427L145.487 0.995617C146.021 0.832087 146.577 0.748706 147.135 0.748184C148.333 0.750884 149.5 1.13851 150.462 1.85429C151.425 2.57007 152.135 3.57638 152.486 4.72584L167.078 52.5477L167.309 53.2975H168.087L167.859 52.5477Z" fill="white" fill-opacity="0.6"/>
<path d="M45.8395 47.9169C45.1193 47.9164 44.4182 47.6843 43.8391 47.2548C43.26 46.8252 42.8334 46.2207 42.6218 45.53L37.8088 29.7575C37.6795 29.3338 37.6346 28.8887 37.6767 28.4476C37.7189 28.0065 37.8472 27.5781 38.0544 27.1868C38.2616 26.7955 38.5436 26.449 38.8843 26.167C39.225 25.885 39.6177 25.6732 40.04 25.5435L105.783 5.35018C106.635 5.08908 107.557 5.17813 108.344 5.59778C109.132 6.01744 109.721 6.73342 109.983 7.58858L114.796 23.3613C115.056 24.217 114.967 25.1412 114.549 25.9312C114.131 26.7213 113.417 27.3126 112.565 27.5755L46.822 47.7688C46.5037 47.8668 46.1725 47.9168 45.8395 47.9169Z" fill="#DA393B"/>
<path d="M71.0517 16.8504C75.1791 16.8504 78.525 13.4934 78.525 9.35243C78.525 5.21143 75.1791 1.85449 71.0517 1.85449C66.9243 1.85449 63.5784 5.21143 63.5784 9.35243C63.5784 13.4934 66.9243 16.8504 71.0517 16.8504Z" fill="#DA393B"/>
<path d="M71.0519 14.1003C73.6655 14.1003 75.7843 11.9746 75.7843 9.35242C75.7843 6.73021 73.6655 4.60449 71.0519 4.60449C68.4383 4.60449 66.3196 6.73021 66.3196 9.35242C66.3196 11.9746 68.4383 14.1003 71.0519 14.1003Z" fill="white"/>
<path d="M225.183 218.252H98.8837C98.0416 218.251 97.2343 217.915 96.6389 217.318C96.0434 216.721 95.7085 215.911 95.7075 215.066V63.2325C95.7085 62.3877 96.0434 61.5777 96.6388 60.9803C97.2343 60.3829 98.0416 60.0468 98.8837 60.0459H225.183C226.025 60.0469 226.832 60.3829 227.428 60.9803C228.023 61.5777 228.358 62.3877 228.359 63.2325V215.066C228.358 215.911 228.023 216.721 227.428 217.318C226.832 217.915 226.025 218.251 225.183 218.252Z" fill="white"/>
<path d="M167.078 52.5479H88.4209C86.7369 52.5502 85.1226 53.2225 83.9318 54.4172C82.741 55.6119 82.071 57.2315 82.0686 58.9211V211.804L82.8159 211.575V58.9211C82.8177 57.4302 83.4089 56.0009 84.4596 54.9467C85.5103 53.8925 86.935 53.2995 88.4209 53.2976H167.309L167.078 52.5479ZM235.646 52.5479H88.4209C86.7369 52.5502 85.1226 53.2225 83.9318 54.4172C82.741 55.6119 82.071 57.2315 82.0686 58.9211V230.624C82.071 232.313 82.741 233.933 83.9318 235.128C85.1226 236.323 86.7369 236.995 88.4209 236.997H235.646C237.33 236.995 238.944 236.323 240.135 235.128C241.325 233.933 241.996 232.313 241.998 230.624V58.9211C241.996 57.2315 241.325 55.6119 240.135 54.4172C238.944 53.2225 237.33 52.5502 235.646 52.5479ZM241.251 230.624C241.249 232.115 240.658 233.544 239.607 234.598C238.556 235.652 237.132 236.246 235.646 236.247H88.4209C86.935 236.246 85.5103 235.652 84.4596 234.598C83.4089 233.544 82.8177 232.115 82.8159 230.624V58.9211C82.8177 57.4302 83.4089 56.0009 84.4596 54.9467C85.5103 53.8925 86.935 53.2995 88.4209 53.2976H235.646C237.132 53.2995 238.556 53.8925 239.607 54.9467C240.658 56.0009 241.249 57.4302 241.251 58.9211V230.624Z" fill="white" fill-opacity="0.6"/>
<path d="M196.411 69.0434H127.656C126.764 69.0424 125.91 68.6866 125.279 68.0541C124.649 67.4215 124.294 66.5639 124.293 65.6693V49.1739C124.294 48.2793 124.649 47.4217 125.279 46.7892C125.91 46.1566 126.764 45.8008 127.656 45.7998H196.411C197.302 45.8008 198.157 46.1566 198.787 46.7892C199.418 47.4217 199.773 48.2793 199.774 49.1739V65.6693C199.773 66.5639 199.418 67.4215 198.788 68.0541C198.157 68.6866 197.302 69.0424 196.411 69.0434Z" fill="#DA393B"/>
<path d="M162.033 46.9246C166.161 46.9246 169.506 43.5676 169.506 39.4266C169.506 35.2857 166.161 31.9287 162.033 31.9287C157.906 31.9287 154.56 35.2857 154.56 39.4266C154.56 43.5676 157.906 46.9246 162.033 46.9246Z" fill="#DA393B"/>
<path d="M162.033 43.9933C164.547 43.9933 166.585 41.9486 166.585 39.4263C166.585 36.9041 164.547 34.8594 162.033 34.8594C159.519 34.8594 157.481 36.9041 157.481 39.4263C157.481 41.9486 159.519 43.9933 162.033 43.9933Z" fill="white"/>
</svg>
