<svg width="196" height="196" viewBox="0 0 196 196" fill="none" xmlns="http://www.w3.org/2000/svg">
<g clip-path="url(#clip0_1704_135)">
<path fill-rule="evenodd" clip-rule="evenodd" d="M163.85 187.274H32.2647C14.4674 187.274 -0.114868 172.806 -0.114868 155.124C-0.114868 151.564 0.57406 148.12 1.72227 144.79C2.29638 142.838 3.21495 140.771 4.36316 138.819L69.9261 25.3757C71.8781 21.931 74.1745 19.0605 76.9302 16.7641L77.2747 16.4196L77.3895 16.19C87.6086 7.46355 102.421 6.20052 114.362 12.8602C119.299 15.7307 123.318 19.8643 126.878 25.9498L191.752 138.819C194.392 143.642 195.885 149.038 196 154.779V155.009C196.23 163.391 192.9 171.543 186.814 177.744C180.729 183.944 172.576 187.274 163.85 187.274Z" fill="#DA393B"/>
<path fill-rule="evenodd" clip-rule="evenodd" d="M163.85 173.725H32.2648C22.0457 173.725 13.6637 165.457 13.6637 155.238C13.6637 153.171 13.8933 151.105 14.6971 149.268L14.9267 148.693C15.2712 147.775 15.5008 146.856 16.1898 145.823L81.7527 32.4943C82.7861 30.4275 84.164 28.7052 85.8863 27.4421L86.0011 27.2125L86.2308 27.0977C92.2015 21.9307 100.698 21.3566 107.358 25.1457C110.688 27.0977 113.443 29.9682 114.936 33.298L179.925 146.053C181.532 149.038 182.336 152.138 182.336 155.238C182.336 165.457 174.069 173.725 163.85 173.725Z" fill="#DA393B"/>
<path fill-rule="evenodd" clip-rule="evenodd" d="M97.9425 107.013C92.2014 107.013 87.4938 102.305 87.4938 96.4496V63.9552C87.4938 58.2141 92.0866 53.3916 97.9425 53.3916C103.913 53.3916 108.506 58.2141 108.506 63.9552V96.4496C108.506 102.191 103.684 107.013 97.9425 107.013Z" fill="white"/>
<path fill-rule="evenodd" clip-rule="evenodd" d="M97.9426 142.722C91.1681 142.722 85.5419 137.096 85.5419 130.092C85.5419 123.203 91.1681 117.691 97.9426 117.691C104.832 117.691 110.458 123.203 110.458 130.092C110.458 137.096 104.832 142.722 97.9426 142.722Z" fill="white"/>
</g>
<defs>
<clipPath id="clip0_1704_135">
<rect width="196" height="196" fill="white"/>
</clipPath>
</defs>
</svg>
