<svg width="32" height="32" viewBox="0 0 32 32" fill="none" xmlns="http://www.w3.org/2000/svg">
<g clip-path="url(#clip0_547_62)">
<path d="M15.9998 31.9995C24.8362 31.9995 31.9995 24.8362 31.9995 15.9998C31.9995 7.16333 24.8362 0 15.9998 0C7.16333 0 0 7.16333 0 15.9998C0 24.8362 7.16333 31.9995 15.9998 31.9995Z" fill="#DA393B"/>
<path d="M16.0001 32.0001C16.0043 32.0001 16.0084 32 16.0126 32C15.9911 32 15.9697 31.9996 15.9482 31.9995C15.9656 31.9996 15.9829 32.0001 16.0001 32.0001Z" fill="#FF3D62"/>
<path d="M7.42556 25.2371C4.94706 22.9355 3.39563 19.6493 3.39563 16.0001C3.39563 9.03913 9.03856 3.39619 15.9995 3.39619C19.6486 3.39619 22.9349 4.94756 25.2366 7.42606L31.8842 14.0736C30.9326 6.1455 24.1845 0 15.9999 0C7.16344 0 0 7.16344 0 15.9999C0 24.7383 7.00538 31.8395 15.7063 31.9963C15.153 31.985 14.6066 31.9458 14.0684 31.8799L7.42556 25.2371Z" fill="#DA393B"/>
<path d="M15.9999 28.6037C22.9608 28.6037 28.6037 22.9608 28.6037 15.9999C28.6037 9.03894 22.9608 3.396 15.9999 3.396C9.03894 3.396 3.396 9.03894 3.396 15.9999C3.396 22.9608 9.03894 28.6037 15.9999 28.6037Z" fill="#F4D5D5"/>
<path d="M23.9561 10.9064L21.0931 8.04346L15.9995 13.1371L10.9059 8.04346L8.04297 10.9064L13.1366 16L8.04297 21.0936L10.9059 23.9566L15.9995 18.863L21.0931 23.9566L23.9561 21.0936L18.8625 16L23.9561 10.9064Z" fill="#DA393B"/>
<path d="M21.0932 23.9566L23.9562 21.0936L18.8627 16L23.9562 10.9064L21.0932 8.04346L15.9997 13.1371L15.9985 13.136V18.8641L15.9997 18.863L21.0932 23.9566Z" fill="#DA393B"/>
</g>
<defs>
<clipPath id="clip0_547_62">
<rect width="32" height="32" fill="white"/>
</clipPath>
</defs>
</svg>
