<svg width="19" height="48" viewBox="0 0 19 48" fill="none" xmlns="http://www.w3.org/2000/svg">
<path d="M1.28637 27.7126C1.29878 27.7129 1.31101 27.7131 1.32332 27.7131C2.03688 27.7131 2.62508 27.1376 2.64474 26.411C2.79418 20.8986 3.94006 16.9659 4.64422 15.0408C5.28752 16.6166 5.88663 18.4751 5.78033 19.7417C5.60101 21.8767 4.51133 22.7293 4.25539 24.7294C4.18464 24.9913 4.14451 25.3823 4.14451 25.9459C4.14451 29.6026 5.03498 29.9846 5.09116 33.3727V45.9403C5.09116 47.078 6.00207 48 7.12597 48C8.24949 48 9.16077 47.078 9.16077 45.9403V28.2967H9.83918V45.9403C9.83918 47.078 10.7501 48 11.874 48C12.9971 48 13.9088 47.078 13.9088 45.9403V33.3727C13.965 29.9847 14.8554 29.6027 14.8554 25.9459C14.8554 25.3827 14.8153 24.9921 14.7446 24.7298C14.489 22.7293 13.3989 21.8766 13.22 19.7417C13.1135 18.4737 13.714 16.6124 14.358 15.0354C15.0616 16.9486 16.2049 20.8645 16.3552 26.411C16.3749 27.1376 16.963 27.7131 17.6767 27.7131C17.689 27.7131 17.7013 27.7129 17.7136 27.7126C18.4438 27.6923 19.0196 27.0767 18.9995 26.3376C18.765 17.6868 16.263 12.6841 16.1566 12.4754C16.0087 12.1853 15.7704 11.9733 15.4948 11.8559C15.0818 11.6098 14.1952 11.151 12.8694 10.8159C12.1813 11.2999 10.9318 11.6247 9.49993 11.6247C8.06812 11.6247 6.81873 11.2999 6.1306 10.816C4.80631 11.1507 3.92016 11.6089 3.50656 11.8551C3.23023 11.9725 2.99145 12.1847 2.84336 12.4754C2.73696 12.6842 0.234983 17.6868 0.000492535 26.3376C-0.0195503 27.0767 0.556218 27.6923 1.28637 27.7126Z" fill="white"/>
<path d="M11.0498 9.43651C12.8096 8.7619 13.8888 7.06201 13.8759 5.26257C13.1857 4.81809 11.4718 3.86182 9.49932 3.86182C7.52605 3.86182 5.81702 4.81465 5.12577 5.2601C5.12146 5.79288 5.2115 6.33533 5.40912 6.86356C6.26484 9.15072 8.79025 10.3027 11.0498 9.43651Z" fill="white"/>
<path d="M4.90837 4.83617C5.66436 4.3503 7.42355 3.38824 9.4993 3.38824C11.575 3.38824 13.3342 4.3503 14.0902 4.83617C14.0608 4.45556 13.9952 4.07657 13.8953 3.70782C13.373 3.38826 12.0993 2.7009 10.6888 2.62212C10.6888 2.62212 12.2657 2.3406 13.6062 2.88401C12.8985 1.25738 11.4702 0 9.4993 0C6.78432 0 5.09765 2.38525 4.90837 4.83617Z" fill="white"/>
</svg>
