<svg width="19" height="18" viewBox="0 0 19 18" fill="none" xmlns="http://www.w3.org/2000/svg">
<path d="M1.38798 1.74425C1.03139 1.74425 0.752321 2.02332 0.752321 2.3799C0.752321 2.73649 1.03139 3.01556 1.38798 3.01556L13.9771 3.01556C14.2562 4.03882 15.1864 4.79851 16.3027 4.79851C17.6205 4.79851 18.7058 3.72874 18.7058 2.39541C18.7058 1.06208 17.6205 0.00781245 16.3027 0.00781239C15.2019 0.00781235 14.2717 0.751998 13.9926 1.75975L1.38798 1.75975L1.38798 1.74425ZM16.3027 1.24812C16.9229 1.24812 17.4345 1.75975 17.4345 2.37991C17.4345 3.00006 16.9229 3.51169 16.3027 3.51169C15.6826 3.51169 15.1709 3.00006 15.1709 2.37991C15.1709 1.75975 15.6826 1.24812 16.3027 1.24812Z" fill="white"/>
<path d="M18.7058 8.98452C18.7058 8.62793 18.4267 8.34886 18.0702 8.34886L11.5275 8.34886C11.2484 7.34111 10.3182 6.59692 9.21744 6.59692C8.11666 6.59692 7.18643 7.34111 6.90736 8.34886L1.37248 8.34886C1.01589 8.34886 0.736818 8.62793 0.736818 8.98452C0.736818 9.34111 1.01589 9.62018 1.37248 9.62018L6.90736 9.62018C7.18643 10.6434 8.11666 11.4031 9.23294 11.4031C10.3492 11.4031 11.2795 10.6434 11.5585 9.62018L18.0702 9.62018C18.4267 9.62018 18.7058 9.34111 18.7058 8.98452ZM9.21744 10.1473C8.59728 10.1473 8.08566 9.63568 8.08566 9.01553C8.08566 8.39537 8.59728 7.88374 9.21744 7.88375C9.83759 7.88375 10.3492 8.39537 10.3492 9.01553C10.3492 9.63568 9.8531 10.1473 9.21744 10.1473Z" fill="white"/>
<path d="M5.4655 16.2248L18.0702 16.2248C18.4267 16.2248 18.7058 15.9457 18.7058 15.5891C18.7058 15.2325 18.4267 14.9535 18.0702 14.9535L5.4655 14.9535C5.18643 13.9302 4.2562 13.186 3.15542 13.186C1.83759 13.186 0.752321 14.2558 0.752321 15.5891C0.752321 16.9225 1.82209 17.9922 3.15542 17.9922C4.2562 18.0077 5.18643 17.248 5.4655 16.2248ZM2.02364 15.6046C2.02364 14.9845 2.53527 14.4729 3.15542 14.4729C3.77558 14.4729 4.28721 14.9845 4.28721 15.6046C4.28721 16.2248 3.77558 16.7364 3.15542 16.7364C2.53527 16.7364 2.02364 16.2248 2.02364 15.6046Z" fill="white"/>
</svg>
