<svg width="6" height="14" viewBox="0 0 6 14" fill="none" xmlns="http://www.w3.org/2000/svg">
<mask id="path-1-inside-1_1145_106" fill="white">
<path fill-rule="evenodd" clip-rule="evenodd" d="M5.0625 13.0806H0.9375C0.84375 13.0806 0.773438 13.0075 0.773438 12.91V0.771211C0.773438 0.673711 0.84375 0.600586 0.9375 0.600586H5.0625C5.15625 0.600586 5.22656 0.673711 5.22656 0.771211V12.91C5.22656 13.0075 5.15625 13.0806 5.0625 13.0806ZM1.10156 12.7393H4.89844V0.941836H1.10156V12.7393Z"/>
</mask>
<path fill-rule="evenodd" clip-rule="evenodd" d="M5.0625 13.0806H0.9375C0.84375 13.0806 0.773438 13.0075 0.773438 12.91V0.771211C0.773438 0.673711 0.84375 0.600586 0.9375 0.600586H5.0625C5.15625 0.600586 5.22656 0.673711 5.22656 0.771211V12.91C5.22656 13.0075 5.15625 13.0806 5.0625 13.0806ZM1.10156 12.7393H4.89844V0.941836H1.10156V12.7393Z" fill="white"/>
<path d="M1.10156 12.7393H-8.89844V22.7393H1.10156V12.7393ZM4.89844 12.7393V22.7393H14.8984V12.7393H4.89844ZM4.89844 0.941836H14.8984V-9.05816H4.89844V0.941836ZM1.10156 0.941836V-9.05816H-8.89844V0.941836H1.10156ZM5.0625 3.08059H0.9375V23.0806H5.0625V3.08059ZM0.9375 3.08059C6.73263 3.08059 10.7734 7.85789 10.7734 12.91H-9.22656C-9.22656 18.157 -5.04513 23.0806 0.9375 23.0806V3.08059ZM10.7734 12.91V0.771211H-9.22656V12.91H10.7734ZM10.7734 0.771211C10.7734 5.82328 6.73263 10.6006 0.9375 10.6006V-9.39941C-5.04513 -9.39941 -9.22656 -4.47586 -9.22656 0.771211H10.7734ZM0.9375 10.6006H5.0625V-9.39941H0.9375V10.6006ZM5.0625 10.6006C-0.732631 10.6006 -4.77344 5.82328 -4.77344 0.771211H15.2266C15.2266 -4.47586 11.0451 -9.39941 5.0625 -9.39941V10.6006ZM-4.77344 0.771211V12.91H15.2266V0.771211H-4.77344ZM-4.77344 12.91C-4.77344 7.85789 -0.732631 3.08059 5.0625 3.08059V23.0806C11.0451 23.0806 15.2266 18.157 15.2266 12.91H-4.77344ZM1.10156 22.7393H4.89844V2.73934H1.10156V22.7393ZM14.8984 12.7393V0.941836H-5.10156V12.7393H14.8984ZM4.89844 -9.05816H1.10156V10.9418H4.89844V-9.05816ZM-8.89844 0.941836V12.7393H11.1016V0.941836H-8.89844Z" fill="white" mask="url(#path-1-inside-1_1145_106)"/>
<path d="M3.60938 11.9106C3.51562 11.9106 3.44531 11.8375 3.44531 11.74C3.44531 11.6425 3.51562 11.5693 3.60938 11.5693H5.0625C5.15625 11.5693 5.22656 11.6425 5.22656 11.74C5.22656 11.8375 5.15625 11.9106 5.0625 11.9106H3.60938Z" fill="white" stroke="white" stroke-width="10"/>
<path d="M3.32812 11.1059C3.23438 11.1059 3.16406 11.0328 3.16406 10.9353C3.16406 10.8378 3.23438 10.7646 3.32812 10.7646H5.0625C5.15625 10.7646 5.22656 10.8378 5.22656 10.9353C5.22656 11.0328 5.15625 11.1059 5.0625 11.1059H3.32812Z" fill="white" stroke="white" stroke-width="10"/>
<path d="M3.82031 10.2778C3.72656 10.2778 3.65625 10.2046 3.65625 10.1071C3.65625 10.0096 3.72656 9.93652 3.82031 9.93652H5.0625C5.15625 9.93652 5.22656 10.0096 5.22656 10.1071C5.22656 10.2046 5.15625 10.2778 5.0625 10.2778H3.82031Z" fill="white" stroke="white" stroke-width="10"/>
<path d="M3.32812 9.47309C3.23438 9.47309 3.16406 9.39996 3.16406 9.30246C3.16406 9.20496 3.23438 9.13184 3.32812 9.13184H5.0625C5.15625 9.13184 5.22656 9.20496 5.22656 9.30246C5.22656 9.39996 5.15625 9.47309 5.0625 9.47309H3.32812Z" fill="white" stroke="white" stroke-width="10"/>
<path d="M3.9375 8.64398C3.84375 8.64398 3.77344 8.57086 3.77344 8.47336C3.77344 8.37586 3.84375 8.30273 3.9375 8.30273H5.0625C5.15625 8.30273 5.22656 8.37586 5.22656 8.47336C5.22656 8.57086 5.15625 8.64398 5.0625 8.64398H3.9375Z" fill="white" stroke="white" stroke-width="10"/>
<path d="M3.32812 7.84027C3.23438 7.84027 3.16406 7.76715 3.16406 7.66965C3.16406 7.57215 3.23438 7.49902 3.32812 7.49902H5.0625C5.15625 7.49902 5.22656 7.57215 5.22656 7.66965C5.22656 7.76715 5.15625 7.84027 5.0625 7.84027H3.32812Z" fill="white" stroke="white" stroke-width="10"/>
<path d="M3.53906 7.01117C3.44531 7.01117 3.375 6.93805 3.375 6.84055C3.375 6.74305 3.44531 6.66992 3.53906 6.66992H5.0625C5.15625 6.66992 5.22656 6.74305 5.22656 6.84055C5.22656 6.93805 5.15625 7.01117 5.0625 7.01117H3.53906Z" fill="white" stroke="white" stroke-width="10"/>
<path d="M3.32812 6.18207C3.23438 6.18207 3.16406 6.10895 3.16406 6.01145C3.16406 5.91395 3.23438 5.84082 3.32812 5.84082H5.0625C5.15625 5.84082 5.22656 5.91395 5.22656 6.01145C5.22656 6.10895 5.15625 6.18207 5.0625 6.18207H3.32812Z" fill="white" stroke="white" stroke-width="10"/>
<path d="M3.63281 5.37836C3.53906 5.37836 3.46875 5.30523 3.46875 5.20773C3.46875 5.11023 3.53906 5.03711 3.63281 5.03711H5.0625C5.15625 5.03711 5.22656 5.11023 5.22656 5.20773C5.22656 5.30523 5.15625 5.37836 5.0625 5.37836H3.63281Z" fill="white" stroke="white" stroke-width="10"/>
<path d="M3.32812 4.54926C3.23438 4.54926 3.16406 4.47613 3.16406 4.37863C3.16406 4.28113 3.23438 4.20801 3.32812 4.20801H5.0625C5.15625 4.20801 5.22656 4.28113 5.22656 4.37863C5.22656 4.47613 5.15625 4.54926 5.0625 4.54926H3.32812Z" fill="white" stroke="white" stroke-width="10"/>
<path d="M3.67969 3.74457C3.58594 3.74457 3.51562 3.67145 3.51562 3.57395C3.51562 3.47645 3.58594 3.40332 3.67969 3.40332H5.0625C5.15625 3.40332 5.22656 3.47645 5.22656 3.57395C5.22656 3.67145 5.15625 3.74457 5.0625 3.74457H3.67969Z" fill="white" stroke="white" stroke-width="10"/>
<path d="M3.32812 2.91645C3.23438 2.91645 3.16406 2.84332 3.16406 2.74582C3.16406 2.64832 3.23438 2.5752 3.32812 2.5752H5.0625C5.15625 2.5752 5.22656 2.64832 5.22656 2.74582C5.22656 2.84332 5.15625 2.91645 5.0625 2.91645H3.32812Z" fill="white" stroke="white" stroke-width="10"/>
<path d="M3.91406 2.11176C3.82031 2.11176 3.75 2.03863 3.75 1.94113C3.75 1.84363 3.82031 1.77051 3.91406 1.77051H5.0625C5.15625 1.77051 5.22656 1.84363 5.22656 1.94113C5.22656 2.03863 5.15625 2.11176 5.0625 2.11176H3.91406Z" fill="white" stroke="white" stroke-width="10"/>
<path d="M2.50781 2.69691C2.10938 2.69691 1.80469 2.38004 1.80469 1.96566C1.80469 1.57566 2.10938 1.25879 2.50781 1.25879C2.88281 1.25879 3.1875 1.57566 3.1875 1.96566C3.1875 2.35566 2.88281 2.69691 2.50781 2.69691ZM2.50781 1.60004C2.29688 1.60004 2.13281 1.77066 2.13281 1.96566C2.13281 2.18504 2.29688 2.35566 2.50781 2.35566C2.69531 2.35566 2.85938 2.18504 2.85938 1.96566C2.85938 1.77066 2.69531 1.60004 2.50781 1.60004Z" fill="white" stroke="white" stroke-width="10"/>
</svg>
