<svg width="12" height="20" viewBox="0 0 12 20" fill="none" xmlns="http://www.w3.org/2000/svg">
<path fill-rule="evenodd" clip-rule="evenodd" d="M5.98721 19.6399C2.6951 19.6399 0 16.1765 0 11.9459C0 10.1046 0.511727 8.31805 1.44136 6.90418C1.50107 6.83842 1.59488 6.78362 1.66311 6.83842C1.73987 6.88226 1.79104 6.96995 1.79104 7.06859C1.73987 8.97566 2.52452 10.1265 3.00213 10.6526C2.79744 6.83842 3.27505 4.07646 4.45203 2.41051C5.45842 0.974723 6.59275 0.919922 6.65245 0.919922C6.70362 0.919922 6.7548 0.952802 6.79744 0.996643C6.83156 1.04048 6.84861 1.11721 6.84861 1.18297C6.84861 5.58896 7.42004 7.53987 7.78678 8.33997C8.00853 4.95327 10.2004 4.78887 10.2431 4.78887C10.2942 4.78887 10.3539 4.81079 10.4051 4.87655C10.4392 4.93135 10.4563 5.01903 10.4563 5.09575C10.2772 6.7617 10.7719 7.98924 11.2665 9.1839C11.6333 10.1046 12 10.9814 12 11.9459C11.9829 16.1875 9.28785 19.6399 5.98721 19.6399ZM4.13646 16.3519C4.08529 16.3519 4.00853 16.2971 3.97441 16.2313L3.21535 14.7955L2.92537 15.1462V16.0121C2.92537 16.1546 2.84009 16.2751 2.72921 16.2751C2.61834 16.2751 2.52452 16.1546 2.52452 16.0121V15.0695V15.0586V12.4829C2.52452 12.3404 2.61834 12.2308 2.72921 12.2308C2.84009 12.2308 2.92537 12.3404 2.92537 12.4829V14.4558C3.22388 14.105 3.51386 13.7433 3.81237 13.3817C3.8806 13.283 4.00853 13.283 4.08529 13.3817C4.15352 13.4693 4.15352 13.6337 4.08529 13.7324L3.50533 14.4448L4.30704 15.9463C4.35821 16.0669 4.34115 16.2313 4.24733 16.2971C4.23028 16.3519 4.19616 16.3519 4.13646 16.3519ZM5.42431 16.3519C4.83582 16.3519 4.35821 15.6614 4.35821 14.8394C4.35821 14.0173 4.83582 13.3378 5.42431 13.3378C5.8081 13.3378 6.15778 13.6337 6.33689 14.105C6.39659 14.2256 6.33689 14.39 6.24307 14.4667C6.15778 14.5325 6.02985 14.4667 5.97015 14.3462C5.85927 14.0393 5.63753 13.8529 5.40725 13.8529C5.04051 13.8529 4.742 14.3023 4.742 14.8394C4.742 15.3764 5.04051 15.8258 5.40725 15.8258C5.63753 15.8258 5.84222 15.6395 5.97015 15.3326C6.02985 15.212 6.1322 15.1682 6.24307 15.212C6.33689 15.2887 6.371 15.4312 6.33689 15.5737C6.15778 16.0669 5.8081 16.3519 5.42431 16.3519ZM7.51386 16.2751C7.08742 16.2751 6.73774 15.8477 6.73774 15.3764C6.73774 15.1901 6.79744 14.8613 7.14712 14.6092C7.3774 14.4448 7.69296 14.3352 8.07676 14.3023V14.0831C8.07676 13.8091 7.89766 13.5899 7.69296 13.5899H7.45416C7.23241 13.5899 7.07036 13.831 7.07036 14.0831C7.07036 14.2256 6.97655 14.3462 6.86567 14.3462C6.7548 14.3462 6.66951 14.2256 6.66951 14.0831C6.66951 13.5241 7.01919 13.0748 7.45416 13.0748H7.69296C8.13646 13.0748 8.47761 13.5241 8.47761 14.0831V14.5544V16.0888C8.47761 16.2313 8.39232 16.3519 8.28145 16.3519C8.17058 16.3519 8.07676 16.2313 8.07676 16.0888V16.0231C7.91471 16.1546 7.71855 16.2751 7.51386 16.2751ZM8.07676 14.8174C7.67591 14.8503 7.45416 14.949 7.32623 15.0476C7.23241 15.1243 7.12154 15.2449 7.12154 15.3764C7.12154 15.5737 7.27505 15.7819 7.51386 15.7819C7.71002 15.7819 7.95736 15.5408 8.07676 15.3983V14.8174ZM9.25373 16.3519C9.14286 16.3519 9.04904 16.2313 9.04904 16.0888V12.5816C9.04904 12.4391 9.14286 12.3185 9.25373 12.3185C9.36461 12.3185 9.44989 12.4391 9.44989 12.5816V16.0888C9.44989 16.2313 9.36461 16.3519 9.25373 16.3519ZM7.01919 10.4114C6.95949 10.4114 6.90832 10.3895 6.84861 10.3238C4.96375 7.18915 5.10874 4.54774 5.1258 4.42718C5.14286 4.29566 5.23667 4.19702 5.34755 4.19702C5.45842 4.21894 5.53518 4.3395 5.53518 4.48198C5.53518 4.5039 5.38166 7.04667 7.18124 10.0169C7.24947 10.1265 7.23241 10.2909 7.14712 10.3676C7.10448 10.4114 7.05331 10.4114 7.01919 10.4114Z" fill="#FF8D01"/>
</svg>
