<svg width="24" height="24" viewBox="0 0 24 24" fill="none" xmlns="http://www.w3.org/2000/svg">
<path d="M23.2099 20.06C23.1978 20.4914 23.0991 20.916 22.9196 21.3086C22.7402 21.7011 22.4837 22.0536 22.1654 22.3451C21.8471 22.6366 21.4734 22.8612 21.0667 23.0054C20.6599 23.1497 20.2282 23.2108 19.7974 23.185C17.1061 23.2 14.4149 23.185 11.7236 23.185C11.5579 23.185 11.3989 23.1191 11.2817 23.0019C11.1645 22.8847 11.0986 22.7257 11.0986 22.56C11.0986 22.3942 11.1645 22.2352 11.2817 22.118C11.3989 22.0008 11.5579 21.935 11.7236 21.935C14.4736 21.935 17.2236 21.975 19.9736 21.935C21.3574 21.915 21.9599 20.875 21.9599 19.6375V4.05871C21.9695 3.66529 21.8588 3.2783 21.6426 2.94949C21.4264 2.62068 21.1149 2.36572 20.7499 2.21871C20.3183 2.10093 19.8693 2.06072 19.4236 2.09996H11.7236C11.5579 2.09996 11.3989 2.03411 11.2817 1.9169C11.1645 1.79969 11.0986 1.64072 11.0986 1.47496C11.0986 1.3092 11.1645 1.15023 11.2817 1.03301C11.3989 0.915805 11.5579 0.849957 11.7236 0.849957C14.5036 0.849957 17.3049 0.743707 20.0824 0.849957C20.5077 0.860714 20.9267 0.955954 21.3149 1.13014C21.7031 1.30432 22.0527 1.55396 22.3435 1.86454C22.6343 2.17513 22.8605 2.54044 23.0088 2.93923C23.1571 3.33802 23.2246 3.76233 23.2074 4.18746L23.2099 20.06Z" fill="white"/>
<path d="M0.969972 11.5789C0.864362 11.6813 0.802535 11.8206 0.797472 11.9676C0.797472 11.9864 0.797472 12.0026 0.789972 12.0214C0.782472 12.0401 0.789972 12.0551 0.797472 12.0726C0.802474 12.22 0.864285 12.3598 0.969972 12.4626L5.55622 17.0489C5.6741 17.1627 5.83197 17.2257 5.99585 17.2243C6.15972 17.2229 6.31648 17.1571 6.43236 17.0412C6.54824 16.9254 6.61397 16.7686 6.61539 16.6047C6.61682 16.4409 6.55382 16.283 6.43997 16.1651L2.92122 12.6451H16.3487C16.5145 12.6451 16.6735 12.5793 16.7907 12.4621C16.9079 12.3448 16.9737 12.1859 16.9737 12.0201C16.9737 11.8544 16.9079 11.6954 16.7907 11.5782C16.6735 11.461 16.5145 11.3951 16.3487 11.3951H2.92122L6.43997 7.87511C6.55382 7.75724 6.61682 7.59936 6.61539 7.43549C6.61397 7.27161 6.54824 7.11486 6.43236 6.99898C6.31648 6.8831 6.15972 6.81737 5.99585 6.81594C5.83197 6.81452 5.6741 6.87751 5.55622 6.99136L0.969972 11.5789Z" fill="white"/>
</svg>
