<svg width="30" height="30" viewBox="0 0 30 30" fill="none" xmlns="http://www.w3.org/2000/svg">
<g clip-path="url(#clip0_435_326)">
<path d="M28.1064 13.7187L15.0001 21.5837L1.89387 13.7187C1.60959 13.5481 1.2692 13.4974 0.947574 13.5779C0.62595 13.6583 0.349439 13.8631 0.178872 14.1474C0.00830415 14.4317 -0.0423479 14.7721 0.0380584 15.0937C0.118465 15.4153 0.323343 15.6918 0.607622 15.8624L14.3576 24.1124C14.552 24.2292 14.7746 24.2909 15.0014 24.2909C15.2282 24.2909 15.4507 24.2292 15.6451 24.1124L29.3951 15.8624C29.6794 15.6918 29.8843 15.4153 29.9647 15.0937C30.0451 14.7721 29.9944 14.4317 29.8239 14.1474C29.6533 13.8631 29.3768 13.6583 29.0552 13.5779C28.7335 13.4974 28.3932 13.5481 28.1089 13.7187H28.1064Z" fill="white"/>
<path d="M28.1064 19.4286L15.0001 27.2924L1.89387 19.4286C1.75311 19.3442 1.59709 19.2883 1.43472 19.2641C1.27236 19.2399 1.10682 19.248 0.947571 19.2878C0.788318 19.3276 0.638467 19.3984 0.506573 19.4961C0.374678 19.5939 0.263324 19.7166 0.178868 19.8574C0.0944114 19.9981 0.0385069 20.1542 0.0143461 20.3165C-0.00981465 20.4789 -0.00175848 20.6444 0.0380546 20.8037C0.118461 21.1253 0.323339 21.4018 0.607618 21.5724L14.3576 29.8224C14.552 29.9392 14.7746 30.0009 15.0014 30.0009C15.2282 30.0009 15.4507 29.9392 15.6451 29.8224L29.3951 21.5724C29.6794 21.4018 29.8843 21.1253 29.9647 20.8037C30.0451 20.482 29.9944 20.1417 29.8239 19.8574C29.6533 19.5731 29.3768 19.3682 29.0552 19.2878C28.7335 19.2074 28.3931 19.2581 28.1089 19.4286H28.1064Z" fill="white"/>
<path d="M15.0001 18.4663C14.3258 18.466 13.6643 18.2823 13.0863 17.9351L0.606343 10.4463C0.421527 10.3352 0.268606 10.1781 0.162444 9.99042C0.0562811 9.80271 0.000488281 9.59072 0.000488281 9.37507C0.000488281 9.15942 0.0562811 8.94743 0.162444 8.75972C0.268606 8.57201 0.421527 8.41495 0.606343 8.30382L13.0863 0.81507C13.6643 0.467856 14.3259 0.284424 15.0001 0.284424C15.6743 0.284424 16.3359 0.467856 16.9138 0.81507L29.3938 8.30382C29.5787 8.41495 29.7316 8.57201 29.8377 8.75972C29.9439 8.94743 29.9997 9.15942 29.9997 9.37507C29.9997 9.59072 29.9439 9.80271 29.8377 9.99042C29.7316 10.1781 29.5787 10.3352 29.3938 10.4463L16.9138 17.9351C16.3359 18.2823 15.6744 18.466 15.0001 18.4663ZM3.68009 9.37507L14.3751 15.7913C14.564 15.9043 14.78 15.964 15.0001 15.964C15.2202 15.964 15.4362 15.9043 15.6251 15.7913L26.3201 9.37507L15.6251 2.95882C15.4362 2.84583 15.2202 2.78616 15.0001 2.78616C14.78 2.78616 14.564 2.84583 14.3751 2.95882L3.68009 9.37507Z" fill="white"/>
</g>
<defs>
<clipPath id="clip0_435_326">
<rect width="30" height="30" fill="white"/>
</clipPath>
</defs>
</svg>
