<svg width="10" height="10" viewBox="0 0 10 10" fill="none" xmlns="http://www.w3.org/2000/svg">
<ellipse cx="5" cy="4.99988" rx="5" ry="4.99988" fill="white"/>
<path d="M4.36574 7.04243C4.26156 7.04253 4.15971 7.01168 4.0731 6.9538L2.48859 5.89741C2.37204 5.8197 2.29113 5.69887 2.26367 5.56151C2.23621 5.42415 2.26444 5.28151 2.34215 5.16496C2.41986 5.04841 2.54069 4.96751 2.67805 4.94005C2.81541 4.91258 2.95806 4.94081 3.07461 5.01852L4.26423 5.81076L6.60113 3.00649C6.69079 2.89887 6.81953 2.83128 6.95903 2.81858C7.09853 2.80588 7.23736 2.84912 7.34498 2.93878C7.4526 3.02844 7.52019 3.15718 7.53289 3.29667C7.54559 3.43617 7.50235 3.575 7.41269 3.68261L4.77176 6.85155C4.72227 6.91125 4.66023 6.95931 4.59005 6.9923C4.51987 7.0253 4.44328 7.04241 4.36574 7.04243Z" fill="#DA393B"/>
</svg>
