<svg width="30" height="30" viewBox="0 0 30 30" fill="none" xmlns="http://www.w3.org/2000/svg">
<path d="M28.1063 13.7187L15 21.5837L1.89375 13.7187C1.60947 13.5481 1.26908 13.4974 0.947452 13.5779C0.625828 13.6583 0.349317 13.8631 0.178749 14.1474C0.00818208 14.4317 -0.0424699 14.7721 0.0379363 15.0937C0.118343 15.4153 0.323221 15.6918 0.607499 15.8624L14.3575 24.1124C14.5519 24.2292 14.7744 24.2909 15.0013 24.2909C15.2281 24.2909 15.4506 24.2292 15.645 24.1124L29.395 15.8624C29.6793 15.6918 29.8842 15.4153 29.9646 15.0937C30.045 14.7721 29.9943 14.4317 29.8238 14.1474C29.6532 13.8631 29.3767 13.6583 29.055 13.5779C28.7334 13.4974 28.393 13.5481 28.1088 13.7187H28.1063Z" fill="white"/>
<path d="M28.1062 19.4286L15 27.2924L1.89375 19.4286C1.75299 19.3442 1.59697 19.2883 1.4346 19.2641C1.27224 19.2399 1.1067 19.248 0.947449 19.2878C0.788196 19.3276 0.638345 19.3984 0.506451 19.4961C0.374556 19.5939 0.263202 19.7166 0.178746 19.8574C0.0942893 19.9981 0.0383848 20.1542 0.014224 20.3165C-0.00993672 20.4789 -0.00188055 20.6444 0.0379326 20.8037C0.118339 21.1253 0.323217 21.4018 0.607496 21.5724L14.3575 29.8224C14.5519 29.9392 14.7744 30.0009 15.0012 30.0009C15.2281 30.0009 15.4506 29.9392 15.645 29.8224L29.395 21.5724C29.6793 21.4018 29.8842 21.1253 29.9646 20.8037C30.045 20.482 29.9943 20.1417 29.8237 19.8574C29.6532 19.5731 29.3767 19.3682 29.055 19.2878C28.7334 19.2074 28.393 19.2581 28.1087 19.4286H28.1062Z" fill="white"/>
<path d="M15 18.4661C14.3257 18.4657 13.6642 18.2821 13.0862 17.9348L0.606221 10.4461C0.421405 10.3349 0.268484 10.1779 0.162322 9.99018C0.056159 9.80247 0.000366211 9.59048 0.000366211 9.37483C0.000366211 9.15917 0.056159 8.94719 0.162322 8.75947C0.268484 8.57176 0.421405 8.41471 0.606221 8.30358L13.0862 0.814825C13.6642 0.467612 14.3257 0.28418 15 0.28418C15.6742 0.28418 16.3358 0.467612 16.9137 0.814825L29.3937 8.30358C29.5785 8.41471 29.7315 8.57176 29.8376 8.75947C29.9438 8.94719 29.9996 9.15917 29.9996 9.37483C29.9996 9.59048 29.9438 9.80247 29.8376 9.99018C29.7315 10.1779 29.5785 10.3349 29.3937 10.4461L16.9137 17.9348C16.3357 18.2821 15.6742 18.4657 15 18.4661ZM3.67997 9.37483L14.375 15.7911C14.5639 15.9041 14.7799 15.9637 15 15.9637C15.2201 15.9637 15.4361 15.9041 15.625 15.7911L26.32 9.37483L15.625 2.95858C15.4361 2.84558 15.2201 2.78591 15 2.78591C14.7799 2.78591 14.5639 2.84558 14.375 2.95858L3.67997 9.37483Z" fill="white"/>
</svg>
