<svg width="18" height="48" viewBox="0 0 18 48" fill="none" xmlns="http://www.w3.org/2000/svg">
<path d="M9 7.90588C11.1746 7.90588 12.9375 6.13609 12.9375 3.95294C12.9375 1.76979 11.1746 0 9 0C6.82538 0 5.0625 1.76979 5.0625 3.95294C5.0625 6.13609 6.82538 7.90588 9 7.90588Z" fill="white"/>
<path d="M13.7812 9.0354H12.9375H5.0625H4.21875C1.89844 9.0354 0 10.9413 0 13.2707V13.553V14.1178V25.9766C0 26.8344 0.692719 27.5295 1.54688 27.5295C2.40103 27.5295 3.09375 26.8344 3.09375 25.9766V14.1178H3.9375V45.7413C3.9375 46.9836 4.95 48.0001 6.1875 48.0001C7.425 48.0001 8.4375 46.9836 8.4375 45.7413V27.6707H9.5625V45.7413C9.5625 46.9836 10.575 48.0001 11.8125 48.0001C13.05 48.0001 14.0625 46.9836 14.0625 45.7413V14.1178H14.9062V25.9766C14.9062 26.8344 15.599 27.5295 16.4531 27.5295C17.3073 27.5295 18 26.8344 18 25.9766V14.1178V13.553V13.2707C18 10.9413 16.1016 9.0354 13.7812 9.0354Z" fill="white"/>
</svg>
