<svg width="26" height="24" viewBox="0 0 26 24" fill="none" xmlns="http://www.w3.org/2000/svg">
<path d="M20.5833 0H5.41667C3.98061 0.00173221 2.60385 0.576962 1.5884 1.59951C0.572955 2.62206 0.00172018 4.00844 0 5.45455V18.5455C0.00172018 19.9916 0.572955 21.3779 1.5884 22.4005C2.60385 23.423 3.98061 23.9983 5.41667 24H20.5833C22.0194 23.9983 23.3961 23.423 24.4116 22.4005C25.427 21.3779 25.9983 19.9916 26 18.5455V5.45455C25.9983 4.00844 25.427 2.62206 24.4116 1.59951C23.3961 0.576962 22.0194 0.00173221 20.5833 0ZM5.41667 2.18182H20.5833C21.4453 2.18182 22.2719 2.52662 22.8814 3.14038C23.4909 3.75413 23.8333 4.58656 23.8333 5.45455V6.54545H2.16667V5.45455C2.16667 4.58656 2.50908 3.75413 3.11857 3.14038C3.72806 2.52662 4.55471 2.18182 5.41667 2.18182ZM20.5833 21.8182H5.41667C4.55471 21.8182 3.72806 21.4734 3.11857 20.8596C2.50908 20.2459 2.16667 19.4134 2.16667 18.5455V8.72727H23.8333V18.5455C23.8333 19.4134 23.4909 20.2459 22.8814 20.8596C22.2719 21.4734 21.4453 21.8182 20.5833 21.8182ZM20.5833 13.0909C20.5833 13.3802 20.4692 13.6577 20.266 13.8623C20.0629 14.0669 19.7873 14.1818 19.5 14.1818H6.5C6.21268 14.1818 5.93713 14.0669 5.73397 13.8623C5.5308 13.6577 5.41667 13.3802 5.41667 13.0909C5.41667 12.8016 5.5308 12.5241 5.73397 12.3195C5.93713 12.1149 6.21268 12 6.5 12H19.5C19.7873 12 20.0629 12.1149 20.266 12.3195C20.4692 12.5241 20.5833 12.8016 20.5833 13.0909ZM16.25 17.4545C16.25 17.7439 16.1359 18.0214 15.9327 18.2259C15.7295 18.4305 15.454 18.5455 15.1667 18.5455H6.5C6.21268 18.5455 5.93713 18.4305 5.73397 18.2259C5.5308 18.0214 5.41667 17.7439 5.41667 17.4545C5.41667 17.1652 5.5308 16.8877 5.73397 16.6832C5.93713 16.4786 6.21268 16.3636 6.5 16.3636H15.1667C15.454 16.3636 15.7295 16.4786 15.9327 16.6832C16.1359 16.8877 16.25 17.1652 16.25 17.4545ZM3.25 4.36364C3.25 4.14787 3.31354 3.93696 3.43257 3.75756C3.55161 3.57816 3.72081 3.43834 3.91876 3.35577C4.11671 3.2732 4.33454 3.2516 4.54468 3.29369C4.75483 3.33578 4.94786 3.43968 5.09937 3.59225C5.25087 3.74481 5.35405 3.93919 5.39585 4.15081C5.43765 4.36243 5.4162 4.58177 5.3342 4.78111C5.25221 4.98045 5.11335 5.15082 4.9352 5.27069C4.75705 5.39056 4.5476 5.45455 4.33333 5.45455C4.04602 5.45455 3.77047 5.33961 3.5673 5.13503C3.36414 4.93044 3.25 4.65296 3.25 4.36364ZM6.5 4.36364C6.5 4.14787 6.56354 3.93696 6.68257 3.75756C6.80161 3.57816 6.97081 3.43834 7.16876 3.35577C7.36671 3.2732 7.58454 3.2516 7.79468 3.29369C8.00483 3.33578 8.19786 3.43968 8.34937 3.59225C8.50087 3.74481 8.60405 3.93919 8.64585 4.15081C8.68765 4.36243 8.6662 4.58177 8.5842 4.78111C8.50221 4.98045 8.36335 5.15082 8.1852 5.27069C8.00705 5.39056 7.7976 5.45455 7.58333 5.45455C7.29602 5.45455 7.02047 5.33961 6.8173 5.13503C6.61414 4.93044 6.5 4.65296 6.5 4.36364ZM9.75 4.36364C9.75 4.14787 9.81354 3.93696 9.93258 3.75756C10.0516 3.57816 10.2208 3.43834 10.4188 3.35577C10.6167 3.2732 10.8345 3.2516 11.0447 3.29369C11.2548 3.33578 11.4479 3.43968 11.5994 3.59225C11.7509 3.74481 11.8541 3.93919 11.8959 4.15081C11.9377 4.36243 11.9162 4.58177 11.8342 4.78111C11.7522 4.98045 11.6134 5.15082 11.4352 5.27069C11.257 5.39056 11.0476 5.45455 10.8333 5.45455C10.546 5.45455 10.2705 5.33961 10.0673 5.13503C9.86414 4.93044 9.75 4.65296 9.75 4.36364Z" fill="white"/>
</svg>
