<svg width="60" height="60" viewBox="0 0 60 60" fill="none" xmlns="http://www.w3.org/2000/svg">
<circle cx="30" cy="30" r="28.5" fill="#1BC871" stroke="white" stroke-width="3"/>
<g clip-path="url(#clip0_1784_75)">
<path d="M19 23.4C19 21.3254 19 20.2892 19.6446 19.6446C20.2892 19 21.3254 19 23.4 19C25.4746 19 26.5108 19 27.1554 19.6446C27.8 20.2892 27.8 21.3254 27.8 23.4V36.6C27.8 38.6746 27.8 39.7108 27.1554 40.3554C26.5108 41 25.4746 41 23.4 41C21.3254 41 20.2892 41 19.6446 40.3554C19 39.7108 19 38.6746 19 36.6V23.4ZM32.2 23.4C32.2 21.3254 32.2 20.2892 32.8446 19.6446C33.4892 19 34.5254 19 36.6 19C38.6746 19 39.7108 19 40.3554 19.6446C41 20.2892 41 21.3254 41 23.4V36.6C41 38.6746 41 39.7108 40.3554 40.3554C39.7108 41 38.6746 41 36.6 41C34.5254 41 33.4892 41 32.8446 40.3554C32.2 39.7108 32.2 38.6746 32.2 36.6V23.4Z" fill="white"/>
</g>
<defs>
<clipPath id="clip0_1784_75">
<rect width="24.8276" height="28.9655" fill="white" transform="translate(17.5864 15.5176)"/>
</clipPath>
</defs>
</svg>
