<svg width="12" height="12" viewBox="0 0 12 12" fill="none" xmlns="http://www.w3.org/2000/svg">
<path fill-rule="evenodd" clip-rule="evenodd" d="M10.8214 8.16667L9.16526 7.97333C8.76752 7.92667 8.3763 8.06667 8.09593 8.35333L6.89619 9.58C5.05094 8.62 3.53822 7.08 2.5993 5.18667L3.80556 3.95333C4.08593 3.66667 4.22286 3.26667 4.17721 2.86L3.98812 1.18C3.90988 0.506667 3.35565 0 2.69058 0H1.56256C0.825767 0 0.212856 0.626667 0.258499 1.38C0.604076 7.07333 5.05746 11.62 10.6193 11.9733C11.3561 12.02 11.969 11.3933 11.969 10.64V9.48667C11.9755 8.81333 11.48 8.24667 10.8214 8.16667Z" fill="white" fill-opacity="0.6"/>
</svg>
