<svg width="16" height="16" viewBox="0 0 16 16" fill="none" xmlns="http://www.w3.org/2000/svg">
<g clip-path="url(#clip0_435_558)">
<path d="M8.00012 8.61542C8.3335 8.61542 8.62209 8.49387 8.86552 8.25008C9.10901 8.00662 9.23106 7.718 9.23106 7.38475V1.23084C9.23106 0.897423 9.10915 0.609003 8.86552 0.365543C8.62213 0.121814 8.3335 0 8.00012 0C7.66671 0 7.37829 0.121949 7.1347 0.365543C6.8911 0.609003 6.76929 0.897557 6.76929 1.23084V7.38478C6.76929 7.71803 6.8911 8.00662 7.1347 8.25011C7.37829 8.49387 7.66681 8.61542 8.00012 8.61542Z" fill="#DA393B"/>
<path d="M14.6108 5.3173C14.0947 4.28533 13.3688 3.4199 12.433 2.72125C12.1638 2.51615 11.8593 2.43599 11.5195 2.48082C11.1798 2.52571 10.9105 2.68595 10.7118 2.96151C10.5067 3.2307 10.4283 3.53357 10.4763 3.87011C10.5242 4.20683 10.683 4.47757 10.9523 4.6827C11.5802 5.15702 12.0661 5.73723 12.4088 6.42312C12.7518 7.10894 12.9231 7.83979 12.9231 8.61527C12.9231 9.28213 12.7933 9.91821 12.5338 10.5241C12.2742 11.1298 11.9232 11.6538 11.4808 12.0961C11.0384 12.5384 10.5146 12.8893 9.90877 13.149C9.303 13.4086 8.66679 13.5386 8.00013 13.5386C7.33357 13.5386 6.69732 13.4086 6.09155 13.149C5.48571 12.8893 4.96175 12.5384 4.51939 12.0961C4.07723 11.6538 3.72623 11.1299 3.46657 10.5241C3.20698 9.91821 3.07715 9.28213 3.07715 8.61527C3.07715 7.83979 3.24864 7.10905 3.59155 6.42312C3.9345 5.7373 4.42007 5.15712 5.04823 4.6827C5.31746 4.47743 5.47605 4.20673 5.52421 3.87011C5.57227 3.5337 5.4938 3.2307 5.28863 2.96151C5.08989 2.68595 4.82239 2.52568 4.48578 2.48082C4.1492 2.43596 3.84303 2.51615 3.56744 2.72125C2.63145 3.4199 1.90562 4.28533 1.3895 5.3173C0.87342 6.3494 0.615479 7.44872 0.615479 8.6153C0.615479 9.61544 0.811014 10.5705 1.20198 11.4807C1.59309 12.391 2.11864 13.1761 2.779 13.8364C3.43916 14.4966 4.22443 15.0224 5.13475 15.4131C6.04501 15.8042 7.00012 16 8.00009 16C9.0001 16 9.95518 15.8042 10.8655 15.4131C11.7758 15.0223 12.5611 14.4966 13.2213 13.8364C13.8815 13.1763 14.407 12.391 14.7981 11.4807C15.1891 10.5705 15.3845 9.61521 15.3845 8.6153C15.3845 7.44869 15.1269 6.34937 14.6108 5.3173Z" fill="#DA393B"/>
</g>
<defs>
<clipPath id="clip0_435_558">
<rect width="16" height="16" fill="white"/>
</clipPath>
</defs>
</svg>
