<svg width="22" height="29" viewBox="0 0 22 29" fill="none" xmlns="http://www.w3.org/2000/svg">
<path d="M11 14C12.3845 14 13.7378 13.5895 14.889 12.8203C16.0401 12.0511 16.9373 10.9579 17.4672 9.67879C17.997 8.3997 18.1356 6.99224 17.8655 5.63437C17.5954 4.2765 16.9287 3.02922 15.9497 2.05026C14.9708 1.07129 13.7235 0.404603 12.3656 0.134506C11.0078 -0.13559 9.6003 0.003033 8.32122 0.532846C7.04213 1.06266 5.94888 1.95987 5.17971 3.11101C4.41054 4.26215 4 5.61553 4 7C4.00185 8.85595 4.73995 10.6353 6.0523 11.9477C7.36465 13.2601 9.14405 13.9981 11 14ZM11 2.33334C11.923 2.33334 12.8252 2.60703 13.5927 3.11981C14.3601 3.63259 14.9582 4.36142 15.3114 5.21415C15.6646 6.06687 15.7571 7.00518 15.577 7.91042C15.3969 8.81567 14.9525 9.64719 14.2998 10.2998C13.6472 10.9525 12.8157 11.3969 11.9104 11.577C11.0052 11.7571 10.0669 11.6646 9.21414 11.3114C8.36142 10.9582 7.63259 10.3601 7.11981 9.59266C6.60703 8.82523 6.33333 7.92298 6.33333 7C6.33333 5.76232 6.825 4.57534 7.70017 3.70017C8.57534 2.825 9.76232 2.33334 11 2.33334Z" fill="white"/>
<path d="M11 17C8.08361 17.0032 5.2876 18.142 3.2254 20.1668C1.1632 22.1915 0.00323504 24.9366 0 27.8C0 28.1183 0.128769 28.4235 0.357981 28.6485C0.587192 28.8736 0.898069 29 1.22222 29C1.54638 29 1.85725 28.8736 2.08646 28.6485C2.31567 28.4235 2.44444 28.1183 2.44444 27.8C2.44444 25.5722 3.34583 23.4356 4.95031 21.8603C6.55479 20.285 8.73093 19.4 11 19.4C13.2691 19.4 15.4452 20.285 17.0497 21.8603C18.6542 23.4356 19.5556 25.5722 19.5556 27.8C19.5556 28.1183 19.6843 28.4235 19.9135 28.6485C20.1427 28.8736 20.4536 29 20.7778 29C21.1019 29 21.4128 28.8736 21.642 28.6485C21.8712 28.4235 22 28.1183 22 27.8C21.9968 24.9366 20.8368 22.1915 18.7746 20.1668C16.7124 18.142 13.9164 17.0032 11 17Z" fill="white"/>
</svg>
