<svg width="21" height="20" viewBox="0 0 21 20" fill="none" xmlns="http://www.w3.org/2000/svg">
<g clip-path="url(#clip0_514_186)">
<path d="M6.33333 0H3.83333C2.94928 0 2.10143 0.35119 1.47631 0.976311C0.85119 1.60143 0.5 2.44928 0.5 3.33333L0.5 5.83333C0.5 6.71739 0.85119 7.56524 1.47631 8.19036C2.10143 8.81548 2.94928 9.16667 3.83333 9.16667H6.33333C7.21739 9.16667 8.06524 8.81548 8.69036 8.19036C9.31548 7.56524 9.66667 6.71739 9.66667 5.83333V3.33333C9.66667 2.44928 9.31548 1.60143 8.69036 0.976311C8.06524 0.35119 7.21739 0 6.33333 0ZM8 5.83333C8 6.27536 7.82441 6.69928 7.51184 7.01184C7.19928 7.32441 6.77536 7.5 6.33333 7.5H3.83333C3.39131 7.5 2.96738 7.32441 2.65482 7.01184C2.34226 6.69928 2.16667 6.27536 2.16667 5.83333V3.33333C2.16667 2.89131 2.34226 2.46738 2.65482 2.15482C2.96738 1.84226 3.39131 1.66667 3.83333 1.66667H6.33333C6.77536 1.66667 7.19928 1.84226 7.51184 2.15482C7.82441 2.46738 8 2.89131 8 3.33333V5.83333Z" fill="#979797"/>
<path d="M17.1666 0H14.6666C13.7825 0 12.9347 0.35119 12.3096 0.976311C11.6844 1.60143 11.3333 2.44928 11.3333 3.33333V5.83333C11.3333 6.71739 11.6844 7.56524 12.3096 8.19036C12.9347 8.81548 13.7825 9.16667 14.6666 9.16667H17.1666C18.0506 9.16667 18.8985 8.81548 19.5236 8.19036C20.1487 7.56524 20.4999 6.71739 20.4999 5.83333V3.33333C20.4999 2.44928 20.1487 1.60143 19.5236 0.976311C18.8985 0.35119 18.0506 0 17.1666 0ZM18.8333 5.83333C18.8333 6.27536 18.6577 6.69928 18.3451 7.01184C18.0325 7.32441 17.6086 7.5 17.1666 7.5H14.6666C14.2246 7.5 13.8006 7.32441 13.4881 7.01184C13.1755 6.69928 12.9999 6.27536 12.9999 5.83333V3.33333C12.9999 2.89131 13.1755 2.46738 13.4881 2.15482C13.8006 1.84226 14.2246 1.66667 14.6666 1.66667H17.1666C17.6086 1.66667 18.0325 1.84226 18.3451 2.15482C18.6577 2.46738 18.8333 2.89131 18.8333 3.33333V5.83333Z" fill="#979797"/>
<path d="M6.33333 10.8335H3.83333C2.94928 10.8335 2.10143 11.1847 1.47631 11.8098C0.85119 12.4349 0.5 13.2828 0.5 14.1668L0.5 16.6668C0.5 17.5509 0.85119 18.3987 1.47631 19.0239C2.10143 19.649 2.94928 20.0002 3.83333 20.0002H6.33333C7.21739 20.0002 8.06524 19.649 8.69036 19.0239C9.31548 18.3987 9.66667 17.5509 9.66667 16.6668V14.1668C9.66667 13.2828 9.31548 12.4349 8.69036 11.8098C8.06524 11.1847 7.21739 10.8335 6.33333 10.8335ZM8 16.6668C8 17.1089 7.82441 17.5328 7.51184 17.8453C7.19928 18.1579 6.77536 18.3335 6.33333 18.3335H3.83333C3.39131 18.3335 2.96738 18.1579 2.65482 17.8453C2.34226 17.5328 2.16667 17.1089 2.16667 16.6668V14.1668C2.16667 13.7248 2.34226 13.3009 2.65482 12.9883C2.96738 12.6758 3.39131 12.5002 3.83333 12.5002H6.33333C6.77536 12.5002 7.19928 12.6758 7.51184 12.9883C7.82441 13.3009 8 13.7248 8 14.1668V16.6668Z" fill="#979797"/>
<path d="M17.1666 10.8335H14.6666C13.7825 10.8335 12.9347 11.1847 12.3096 11.8098C11.6844 12.4349 11.3333 13.2828 11.3333 14.1668V16.6668C11.3333 17.5509 11.6844 18.3987 12.3096 19.0239C12.9347 19.649 13.7825 20.0002 14.6666 20.0002H17.1666C18.0506 20.0002 18.8985 19.649 19.5236 19.0239C20.1487 18.3987 20.4999 17.5509 20.4999 16.6668V14.1668C20.4999 13.2828 20.1487 12.4349 19.5236 11.8098C18.8985 11.1847 18.0506 10.8335 17.1666 10.8335ZM18.8333 16.6668C18.8333 17.1089 18.6577 17.5328 18.3451 17.8453C18.0325 18.1579 17.6086 18.3335 17.1666 18.3335H14.6666C14.2246 18.3335 13.8006 18.1579 13.4881 17.8453C13.1755 17.5328 12.9999 17.1089 12.9999 16.6668V14.1668C12.9999 13.7248 13.1755 13.3009 13.4881 12.9883C13.8006 12.6758 14.2246 12.5002 14.6666 12.5002H17.1666C17.6086 12.5002 18.0325 12.6758 18.3451 12.9883C18.6577 13.3009 18.8333 13.7248 18.8333 14.1668V16.6668Z" fill="#979797"/>
</g>
<defs>
<clipPath id="clip0_514_186">
<rect width="20" height="20" fill="white" transform="translate(0.5)"/>
</clipPath>
</defs>
</svg>
