<svg width="43" height="43" viewBox="0 0 43 43" fill="none" xmlns="http://www.w3.org/2000/svg">
<circle cx="21.0909" cy="21.0909" r="19.5909" fill="#DA393B" stroke="white" stroke-width="3"/>
<g clip-path="url(#clip0_1144_581)">
<path d="M26.2196 11.5526C24.4892 10.6282 22.5387 10.1877 20.5761 10.2779C18.6136 10.3681 16.7124 10.9857 15.0753 12.0648L13.4713 10.4867C13.3259 10.3411 13.1403 10.2417 12.9379 10.2011C12.7356 10.1605 12.5257 10.1806 12.3348 10.2588C12.144 10.337 11.9808 10.4697 11.8661 10.6402C11.7513 10.8107 11.6901 11.0112 11.6903 11.2163V17.0006C11.6903 17.2751 11.8 17.5383 11.9954 17.7323C12.1907 17.9264 12.4556 18.0354 12.7318 18.0354H18.5487C18.7556 18.0366 18.9582 17.9766 19.1306 17.863C19.3029 17.7493 19.4374 17.5873 19.5167 17.3975C19.596 17.2076 19.6167 16.9986 19.576 16.7971C19.5353 16.5956 19.4351 16.4107 19.2882 16.266L18.1009 15.0863C19.3111 14.5 20.6697 14.2856 22.0032 14.4704C23.3367 14.6552 24.5844 15.2308 25.5869 16.1237C26.5895 17.0165 27.3012 18.1861 27.6313 19.483C27.9614 20.7798 27.8948 22.145 27.44 23.404C26.9852 24.663 26.1628 25.7587 25.078 26.551C23.9933 27.3434 22.6953 27.7964 21.3501 27.8521C20.0049 27.9078 18.6735 27.5638 17.5261 26.864C16.3787 26.1641 15.4674 25.1403 14.9086 23.9233C14.7961 23.6998 14.606 23.5242 14.3734 23.4291C14.1408 23.334 13.8814 23.3258 13.6432 23.4059L11.6538 23.975C11.5154 24.0164 11.3871 24.086 11.2771 24.1793C11.1672 24.2727 11.0781 24.3878 11.0154 24.5172C10.9527 24.6467 10.9178 24.7877 10.9129 24.9313C10.9081 25.0749 10.9334 25.2179 10.9873 25.3513C11.6664 26.9542 12.7229 28.3717 14.068 29.4847C15.4131 30.5977 17.0075 31.3737 18.7171 31.7474C20.4267 32.121 22.2016 32.0815 23.8927 31.6321C25.5838 31.1826 27.1415 30.3365 28.435 29.1647C29.7286 27.9929 30.7201 26.5297 31.3262 24.8982C31.9323 23.2666 32.1354 21.5143 31.9183 19.7886C31.7012 18.0629 31.0704 16.4141 30.0787 14.9809C29.087 13.5478 27.7636 12.372 26.2196 11.5526Z" fill="white"/>
</g>
<defs>
<clipPath id="clip0_1144_581">
<rect width="21.0909" height="21.8182" fill="white" transform="translate(10.9089 10.1816)"/>
</clipPath>
</defs>
</svg>
