<svg width="25" height="25" viewBox="0 0 25 25" fill="none" xmlns="http://www.w3.org/2000/svg">
<circle cx="12.5" cy="12.5" r="12.5" fill="#DA393B"/>
<path d="M10.9146 17.6078C10.6542 17.608 10.3995 17.5309 10.183 17.3862L6.22172 14.7452C5.93034 14.5509 5.72808 14.2488 5.65942 13.9054C5.59076 13.562 5.66133 13.2054 5.85561 12.914C6.04989 12.6226 6.35196 12.4204 6.69537 12.3517C7.03877 12.283 7.39539 12.3536 7.68677 12.5479L10.6608 14.5285L16.5031 7.5177C16.7272 7.24865 17.0491 7.07967 17.3978 7.04792C17.7466 7.01617 18.0936 7.12427 18.3627 7.34842C18.6317 7.57258 18.8007 7.89443 18.8325 8.24318C18.8642 8.59193 18.7561 8.939 18.532 9.20805L11.9297 17.1306C11.8059 17.2798 11.6508 17.4 11.4754 17.4825C11.2999 17.5649 11.1085 17.6077 10.9146 17.6078Z" fill="white"/>
</svg>
