<svg width="25" height="25" viewBox="0 0 25 25" fill="none" xmlns="http://www.w3.org/2000/svg">
<circle cx="12.5" cy="12.5" r="12.5" fill="#DA393B"/>
<path d="M10.9146 17.6076C10.6542 17.6078 10.3995 17.5307 10.183 17.386L6.22172 14.7449C5.93034 14.5506 5.72808 14.2486 5.65942 13.9052C5.59076 13.5618 5.66133 13.2051 5.85561 12.9138C6.04989 12.6224 6.35196 12.4201 6.69537 12.3515C7.03877 12.2828 7.39539 12.3534 7.68677 12.5477L10.6608 14.5283L16.5031 7.51746C16.7272 7.24841 17.0491 7.07942 17.3978 7.04768C17.7466 7.01593 18.0936 7.12402 18.3627 7.34818C18.6317 7.57233 18.8007 7.89419 18.8325 8.24293C18.8642 8.59168 18.7561 8.93876 18.532 9.20781L11.9297 17.1303C11.8059 17.2796 11.6508 17.3997 11.4754 17.4822C11.2999 17.5647 11.1085 17.6075 10.9146 17.6076Z" fill="white"/>
</svg>
