<svg width="30" height="30" viewBox="0 0 30 30" fill="none" xmlns="http://www.w3.org/2000/svg">
<path fill-rule="evenodd" clip-rule="evenodd" d="M2.5 0C1.83696 0 1.20107 0.263392 0.732233 0.732233C0.263392 1.20107 0 1.83696 0 2.5V27.5C0 28.163 0.263392 28.7989 0.732233 29.2678C1.20107 29.7366 1.83696 30 2.5 30H27.5C28.163 30 28.7989 29.7366 29.2678 29.2678C29.7366 28.7989 30 28.163 30 27.5V2.5C30 1.83696 29.7366 1.20107 29.2678 0.732233C28.7989 0.263392 28.163 0 27.5 0H2.5ZM21.6667 8.33333H19.1667V21.6667H21.6667V8.33333ZM23.3333 10.8333H25.8333V14.1667H26.6667V15.8333H25.8333V19.1667H23.3333V10.8333ZM8.33333 21.6667H10.8333V8.33333H8.33333V21.6667ZM6.66667 19.1667H4.16667V15.8333H3.33333V14.1667H4.16667V10.8333H6.66667V19.1667ZM12.5 15.8333H17.5V14.1667H12.5V15.8333Z" fill="white"/>
</svg>
