<svg width="64" height="60" viewBox="0 0 64 60" fill="none" xmlns="http://www.w3.org/2000/svg">
<path d="M11.2727 0.744141H19.1623C24.9721 0.744141 29.6818 5.15674 29.6818 10.5999V17.9918C29.6818 23.435 24.9721 27.8476 19.1623 27.8476H11.2727C5.46293 27.8477 0.753174 23.4351 0.753174 17.9918V10.5999C0.753174 5.15674 5.46293 0.744141 11.2727 0.744141Z" fill="white"/>
<path d="M45.4614 0.744141H53.351C59.1608 0.744141 63.8705 5.15674 63.8705 10.5999V17.9918C63.8705 23.435 59.1608 27.8476 53.351 27.8476H45.4614C39.6516 27.8476 34.9419 23.435 34.9419 17.9918V10.5999C34.9418 5.15674 39.6515 0.744141 45.4614 0.744141Z" fill="white"/>
<path d="M11.2727 32.7744H19.1623C24.9721 32.7744 29.6818 37.187 29.6818 42.6302V50.0221C29.6818 55.4653 24.9721 59.8779 19.1623 59.8779H11.2727C5.46293 59.878 0.753174 55.4654 0.753174 50.0222V42.6303C0.753174 37.187 5.46293 32.7744 11.2727 32.7744Z" fill="white"/>
<path d="M45.4614 32.7744H53.351C59.1608 32.7744 63.8705 37.187 63.8705 42.6302V50.0221C63.8705 55.4654 59.1608 59.878 53.351 59.878H45.4614C39.6516 59.878 34.9419 55.4654 34.9419 50.0222V42.6303C34.9418 37.187 39.6515 32.7744 45.4614 32.7744Z" fill="white"/>
</svg>
