<svg width="65" height="65" viewBox="0 0 65 65" fill="none" xmlns="http://www.w3.org/2000/svg">
<g clip-path="url(#clip0_514_194)">
<circle cx="33" cy="33" r="20" fill="white"/>
<path d="M46.971 34.864L47.3289 34.6403L47.3881 34.5219C47.6156 34.3198 47.8092 34.0808 47.9602 33.8139C48.1959 33.3973 48.3198 32.9267 48.3198 32.448C48.3198 31.9693 48.1959 31.4987 47.9602 31.0821C47.727 30.6699 47.3923 30.3244 46.9879 30.0783L26.197 17.084L26.1898 17.0795L26.1826 17.0751C25.7477 16.8101 25.2483 16.6699 24.739 16.6699C24.2385 16.6699 23.7476 16.8053 23.318 17.0615C22.8947 17.3047 22.5415 17.6536 22.293 18.0741C22.04 18.5022 21.9045 18.9895 21.9001 19.4867H21.9V19.5L21.9 45.5L21.9001 45.5133C21.9045 46.0105 22.04 46.4978 22.293 46.9259C22.5459 47.354 22.9074 47.7077 23.3408 47.9514L23.3521 47.9578L23.3635 47.964C23.7763 48.1868 24.2385 48.3023 24.7075 48.3L24.7436 48.2998L24.7797 48.2979C25.265 48.2721 25.7363 48.127 26.1521 47.8756L26.1616 47.8699L26.171 47.864L46.971 34.864ZM15.2773 6.72444C20.3749 3.31834 26.368 1.50024 32.4988 1.5C40.7167 1.51343 48.5942 4.78392 54.4051 10.5949C60.2158 16.4056 63.4863 24.2825 63.5 32.5C63.5 38.6312 61.6819 44.6248 58.2756 49.7227C54.8692 54.8206 50.0277 58.7939 44.3632 61.1403C38.6987 63.4866 32.4656 64.1005 26.4522 62.9043C20.4388 61.7082 14.9151 58.7557 10.5797 54.4203C6.24428 50.0849 3.29181 44.5612 2.09567 38.5478C0.899529 32.5344 1.51343 26.3013 3.85975 20.6368C6.20607 14.9723 10.1794 10.1308 15.2773 6.72444Z" fill="#1BC871" stroke="white" stroke-width="3"/>
</g>
<defs>
<clipPath id="clip0_514_194">
<rect width="65" height="65" fill="white"/>
</clipPath>
</defs>
</svg>
