<svg width="32" height="32" viewBox="0 0 32 32" fill="none" xmlns="http://www.w3.org/2000/svg">
<g clip-path="url(#clip0_546_55)">
<path d="M15.9999 30.6668C24.1002 30.6668 30.6668 24.1002 30.6668 15.9999C30.6668 7.89959 24.1002 1.33301 15.9999 1.33301C7.89959 1.33301 1.33301 7.89959 1.33301 15.9999C1.33301 24.1002 7.89959 30.6668 15.9999 30.6668Z" fill="#8DFF98"/>
<path d="M16 32C7.1775 32 0 24.8225 0 16C0 7.1775 7.1775 0 16 0C24.8225 0 32 7.1775 32 16C32 24.8225 24.8225 32 16 32ZM16 2.66687C8.64812 2.66687 2.66687 8.64812 2.66687 16C2.66687 23.3519 8.64812 29.3331 16 29.3331C23.3519 29.3331 29.3331 23.3519 29.3331 16C29.3331 8.64812 23.3519 2.66687 16 2.66687Z" fill="#008442"/>
<path d="M14.6664 21.3332C14.4034 21.3334 14.1463 21.2555 13.9277 21.1094L9.92766 18.4425C9.63344 18.2464 9.4292 17.9413 9.35987 17.5946C9.29054 17.2478 9.3618 16.8877 9.55798 16.5935C9.75415 16.2993 10.0592 16.095 10.4059 16.0257C10.7527 15.9564 11.1128 16.0276 11.407 16.2238L14.4102 18.2238L20.3095 11.1444C20.5359 10.8727 20.8609 10.7021 21.213 10.67C21.5652 10.638 21.9157 10.7471 22.1874 10.9735C22.459 11.1998 22.6297 11.5248 22.6617 11.877C22.6938 12.2291 22.5846 12.5796 22.3583 12.8513L15.6914 20.8513C15.5665 21.002 15.4099 21.1233 15.2327 21.2066C15.0555 21.2899 14.8622 21.3331 14.6664 21.3332Z" fill="#008442"/>
</g>
<defs>
<clipPath id="clip0_546_55">
<rect width="32" height="32" rx="8" fill="white"/>
</clipPath>
</defs>
</svg>
