<svg width="40" height="40" viewBox="0 0 40 40" fill="none" xmlns="http://www.w3.org/2000/svg">
<path d="M20 40C31.0457 40 40 31.0457 40 20C40 8.9543 31.0457 0 20 0C8.9543 0 0 8.9543 0 20C0 31.0457 8.9543 40 20 40Z" fill="#2A2FAF"/>
<path fill-rule="evenodd" clip-rule="evenodd" d="M3.83545 8.22196L36.6601 31.0711C36.3863 31.4822 36.0977 31.8827 35.7951 32.2716L3.00781 9.44857C3.26884 9.02911 3.54497 8.62 3.83545 8.22196Z" fill="#E92B2B"/>
<path fill-rule="evenodd" clip-rule="evenodd" d="M4.28351 7.63188L37.0596 30.4471C36.9304 30.6577 36.7968 30.8658 36.6601 31.0711L3.83545 8.22196C3.98103 8.0225 4.13082 7.82563 4.28351 7.63188ZM3.00781 9.44857L35.7951 32.2716C35.6432 32.4669 35.4883 32.659 35.3295 32.8483L2.62835 10.0853C2.7512 9.87045 2.87731 9.6583 3.00781 9.44857Z" fill="#FBFBFB"/>
<path fill-rule="evenodd" clip-rule="evenodd" d="M36.9949 9.44857L4.20771 32.2716C3.90504 31.8827 3.61643 31.4822 3.34263 31.0711L36.1673 8.22196C36.4578 8.62 36.7339 9.02911 36.9949 9.44857Z" fill="#E92B2B"/>
<path fill-rule="evenodd" clip-rule="evenodd" d="M36.9921 9.44839C37.1226 9.65813 37.2493 9.87045 37.3721 10.0853L4.67104 32.8483C4.51216 32.659 4.35672 32.4667 4.20482 32.2714L36.9921 9.44839ZM35.717 7.63188C35.8696 7.82563 36.0188 8.02232 36.1645 8.22179L3.33975 31.0709C3.20306 30.8656 3.07006 30.6577 2.94085 30.4471L35.717 7.63188Z" fill="#FBFBFB"/>
<path fill-rule="evenodd" clip-rule="evenodd" d="M4.54136 7.31134L37.275 30.0877C37.0252 30.5145 36.76 30.9313 36.4803 31.3371L3.64397 8.48946C3.92877 8.08545 4.22815 7.6925 4.54136 7.31134Z" fill="#FBFBFB"/>
<path fill-rule="evenodd" clip-rule="evenodd" d="M36.3571 8.48946L3.52081 31.3371C3.24101 30.9313 2.97582 30.5145 2.726 30.0877L35.4596 7.31134C35.7729 7.6925 36.0722 8.08545 36.3571 8.48946Z" fill="#FBFBFB"/>
<path fill-rule="evenodd" clip-rule="evenodd" d="M22.1429 0.113446C21.4388 0.0384642 20.7239 0 20 0C19.2761 0 18.5612 0.0384642 17.8571 0.113446V17.7444H0.125786C0.0426784 18.4847 0 19.2374 0 20C0 20.7626 0.0426784 21.5153 0.125786 22.2556H17.8571V39.8865C18.5612 39.9615 19.2761 40 20 40C20.7239 40 21.4388 39.9615 22.1429 39.8865V22.2556H39.8742C39.9573 21.5153 40 20.7626 40 20C40 19.2374 39.9573 18.4847 39.8742 17.7444H22.1429V0.113446Z" fill="#E92B2B"/>
<path fill-rule="evenodd" clip-rule="evenodd" d="M0.224759 23.0075C0.150027 22.512 0.0934732 22.0105 0.0558036 21.5038H18.5715V39.9497C18.0904 39.9158 17.6141 39.8648 17.1429 39.7974V23.0075H0.224759ZM22.8572 39.7974C22.3862 39.8648 21.9098 39.9158 21.4287 39.9497V21.5038H39.9445C39.9068 22.0105 39.8502 22.512 39.7754 23.0075H22.8572V39.7974ZM39.7754 16.9925C39.8502 17.488 39.9068 17.9895 39.9445 18.4963H21.4287V0.0502232C21.9098 0.0841786 22.3862 0.135143 22.8572 0.202527V16.9925H39.7754ZM18.5715 0.0502232V18.4963H0.0558036C0.0934732 17.9895 0.150027 17.488 0.224759 16.9925H17.1429V0.202527C17.6141 0.135143 18.0904 0.0841786 18.5715 0.0502232Z" fill="#FBFBFB"/>
</svg>
