<svg width="21" height="20" viewBox="0 0 21 20" fill="none" xmlns="http://www.w3.org/2000/svg">
<path d="M10.5 13.3333C9.84073 13.3333 9.19626 13.1378 8.6481 12.7716C8.09994 12.4053 7.67269 11.8847 7.4204 11.2756C7.16811 10.6665 7.1021 9.9963 7.23072 9.3497C7.35933 8.7031 7.6768 8.10915 8.14298 7.64298C8.60915 7.1768 9.2031 6.85933 9.8497 6.73072C10.4963 6.6021 11.1665 6.66811 11.7756 6.9204C12.3847 7.1727 12.9053 7.59994 13.2716 8.1481C13.6378 8.69627 13.8333 9.34073 13.8333 10C13.8333 10.8841 13.4821 11.7319 12.857 12.357C12.2319 12.9821 11.3841 13.3333 10.5 13.3333ZM10.5 8.33333C10.1704 8.33333 9.84813 8.43108 9.57405 8.61422C9.29997 8.79735 9.08635 9.05765 8.9602 9.3622C8.83405 9.66674 8.80105 10.0019 8.86536 10.3252C8.92967 10.6485 9.0884 10.9454 9.32149 11.1785C9.55458 11.4116 9.85155 11.5703 10.1748 11.6346C10.4982 11.699 10.8333 11.6659 11.1378 11.5398C11.4423 11.4137 11.7026 11.2 11.8858 10.926C12.0689 10.6519 12.1667 10.3296 12.1667 10C12.1667 9.55797 11.9911 9.13405 11.6785 8.82149C11.3659 8.50893 10.942 8.33333 10.5 8.33333ZM15.5 19.1667C15.5 17.8406 14.9732 16.5688 14.0355 15.6311C13.0979 14.6935 11.8261 14.1667 10.5 14.1667C9.17392 14.1667 7.90215 14.6935 6.96447 15.6311C6.02678 16.5688 5.5 17.8406 5.5 19.1667C5.5 19.3877 5.5878 19.5996 5.74408 19.7559C5.90036 19.9122 6.11232 20 6.33333 20C6.55435 20 6.76631 19.9122 6.92259 19.7559C7.07887 19.5996 7.16667 19.3877 7.16667 19.1667C7.16667 18.2826 7.51786 17.4348 8.14298 16.8096C8.7681 16.1845 9.61594 15.8333 10.5 15.8333C11.3841 15.8333 12.2319 16.1845 12.857 16.8096C13.4821 17.4348 13.8333 18.2826 13.8333 19.1667C13.8333 19.3877 13.9211 19.5996 14.0774 19.7559C14.2337 19.9122 14.4457 20 14.6667 20C14.8877 20 15.0996 19.9122 15.2559 19.7559C15.4122 19.5996 15.5 19.3877 15.5 19.1667ZM15.5 6.66667C14.8407 6.66667 14.1963 6.47117 13.6481 6.1049C13.0999 5.73863 12.6727 5.21803 12.4204 4.60895C12.1681 3.99986 12.1021 3.32964 12.2307 2.68303C12.3593 2.03643 12.6768 1.44249 13.143 0.976312C13.6092 0.510137 14.2031 0.192668 14.8497 0.0640506C15.4963 -0.0645668 16.1665 0.00144427 16.7756 0.253736C17.3847 0.506029 17.9053 0.93327 18.2716 1.48143C18.6378 2.0296 18.8333 2.67406 18.8333 3.33334C18.8333 4.21739 18.4821 5.06524 17.857 5.69036C17.2319 6.31548 16.3841 6.66667 15.5 6.66667ZM15.5 1.66667C15.1704 1.66667 14.8481 1.76442 14.574 1.94755C14.3 2.13069 14.0863 2.39099 13.9602 2.69553C13.8341 3.00007 13.801 3.33518 13.8654 3.65849C13.9297 3.98179 14.0884 4.27876 14.3215 4.51185C14.5546 4.74493 14.8515 4.90367 15.1748 4.96798C15.4982 5.03229 15.8333 4.99928 16.1378 4.87313C16.4423 4.74699 16.7026 4.53337 16.8858 4.25929C17.0689 3.9852 17.1667 3.66297 17.1667 3.33334C17.1667 2.89131 16.9911 2.46738 16.6785 2.15482C16.3659 1.84226 15.942 1.66667 15.5 1.66667ZM20.5 12.5C20.4987 11.1743 19.9715 9.90333 19.0341 8.96593C18.0967 8.02853 16.8257 7.50133 15.5 7.5C15.279 7.5 15.067 7.5878 14.9107 7.74408C14.7545 7.90036 14.6667 8.11232 14.6667 8.33333C14.6667 8.55435 14.7545 8.76631 14.9107 8.92259C15.067 9.07887 15.279 9.16667 15.5 9.16667C16.3841 9.16667 17.2319 9.51786 17.857 10.143C18.4821 10.7681 18.8333 11.6159 18.8333 12.5C18.8333 12.721 18.9211 12.933 19.0774 13.0893C19.2337 13.2455 19.4457 13.3333 19.6667 13.3333C19.8877 13.3333 20.0996 13.2455 20.2559 13.0893C20.4122 12.933 20.5 12.721 20.5 12.5ZM5.5 6.66667C4.84073 6.66667 4.19626 6.47117 3.6481 6.1049C3.09994 5.73863 2.67269 5.21803 2.4204 4.60895C2.16811 3.99986 2.1021 3.32964 2.23072 2.68303C2.35933 2.03643 2.6768 1.44249 3.14298 0.976312C3.60915 0.510137 4.2031 0.192668 4.8497 0.0640506C5.4963 -0.0645668 6.16652 0.00144427 6.77561 0.253736C7.3847 0.506029 7.90529 0.93327 8.27156 1.48143C8.63784 2.0296 8.83333 2.67406 8.83333 3.33334C8.83333 4.21739 8.48214 5.06524 7.85702 5.69036C7.2319 6.31548 6.38405 6.66667 5.5 6.66667ZM5.5 1.66667C5.17036 1.66667 4.84813 1.76442 4.57405 1.94755C4.29997 2.13069 4.08635 2.39099 3.9602 2.69553C3.83405 3.00007 3.80105 3.33518 3.86536 3.65849C3.92967 3.98179 4.0884 4.27876 4.32149 4.51185C4.55458 4.74493 4.85155 4.90367 5.17485 4.96798C5.49815 5.03229 5.83326 4.99928 6.13781 4.87313C6.44235 4.74699 6.70265 4.53337 6.88578 4.25929C7.06892 3.9852 7.16667 3.66297 7.16667 3.33334C7.16667 2.89131 6.99107 2.46738 6.67851 2.15482C6.36595 1.84226 5.94203 1.66667 5.5 1.66667ZM2.16667 12.5C2.16667 11.6159 2.51786 10.7681 3.14298 10.143C3.7681 9.51786 4.61594 9.16667 5.5 9.16667C5.72101 9.16667 5.93297 9.07887 6.08926 8.92259C6.24554 8.76631 6.33333 8.55435 6.33333 8.33333C6.33333 8.11232 6.24554 7.90036 6.08926 7.74408C5.93297 7.5878 5.72101 7.5 5.5 7.5C4.17432 7.50133 2.90332 8.02853 1.96593 8.96593C1.02853 9.90333 0.501324 11.1743 0.5 12.5C0.5 12.721 0.587797 12.933 0.744078 13.0893C0.900358 13.2455 1.11232 13.3333 1.33333 13.3333C1.55435 13.3333 1.76631 13.2455 1.92259 13.0893C2.07887 12.933 2.16667 12.721 2.16667 12.5Z" fill="#979797"/>
</svg>
