<svg width="13" height="14" viewBox="0 0 13 14" fill="none" xmlns="http://www.w3.org/2000/svg">
<path d="M9.31713 4.01672C9.31713 1.80189 7.51523 0 5.30041 0C3.08559 0 1.28369 1.80189 1.28369 4.01672C1.28369 5.44758 2.03607 6.70613 3.16572 7.4177C2.57168 7.67916 2.02533 8.05148 1.55246 8.52435C0.551289 9.52553 0 10.8567 0 12.2725C0 12.5692 0.24041 12.8096 0.537109 12.8096C0.833809 12.8096 1.07422 12.5692 1.07422 12.2725C1.07422 9.94211 2.97021 8.04611 5.30062 8.04611C5.34338 8.04611 5.38484 8.04096 5.42459 8.0315C7.58205 7.96576 9.31713 6.19008 9.31713 4.01672ZM2.3577 4.01672C2.3577 2.39422 3.6777 1.07422 5.3002 1.07422C6.9227 1.07422 8.2427 2.39422 8.2427 4.01672C8.2427 5.63922 6.9227 6.95922 5.3002 6.95922C3.6777 6.95922 2.3577 5.63943 2.3577 4.01672Z" fill="white"/>
<path d="M9.5556 6.68121C7.71031 6.68121 6.20898 8.18254 6.20898 10.0278C6.20898 11.8731 7.71031 13.3745 9.5556 13.3745C11.4009 13.3745 12.9022 11.8731 12.9022 10.0278C12.9022 8.18254 11.4009 6.68121 9.5556 6.68121ZM9.5556 12.3C8.30264 12.3 7.2832 11.2806 7.2832 10.0276C7.2832 8.77465 8.30264 7.75522 9.5556 7.75522C10.8086 7.75522 11.828 8.77465 11.828 10.0276C11.828 11.2806 10.8086 12.3 9.5556 12.3Z" fill="white"/>
<path d="M10.0156 9.49072L9.93115 8.94953C9.88539 8.65649 9.61082 8.45604 9.31777 8.50158C9.02473 8.54735 8.82406 8.82191 8.86982 9.11496L9.02451 10.1071C9.02945 10.1406 9.03762 10.1731 9.04836 10.2042C9.04879 10.2053 9.049 10.2064 9.04943 10.2074C9.05416 10.221 9.05974 10.2343 9.06555 10.2474C9.06662 10.2496 9.06748 10.2517 9.06855 10.2541C9.0755 10.269 9.08317 10.2837 9.09154 10.2979C9.09799 10.3091 9.10486 10.32 9.11217 10.3308C9.11389 10.3333 9.11582 10.3359 9.11754 10.3385C9.12506 10.3492 9.13301 10.3598 9.14139 10.3699L9.14547 10.3746C9.15363 10.3843 9.16223 10.3937 9.17103 10.4027C9.17232 10.404 9.17361 10.4055 9.17512 10.407C9.18479 10.4167 9.19488 10.4259 9.20541 10.435L9.21014 10.439C9.22066 10.4481 9.23162 10.4564 9.24301 10.4646C9.2443 10.4657 9.2458 10.4665 9.2473 10.4676C9.25891 10.4758 9.27094 10.4837 9.2834 10.491C9.28426 10.4915 9.28512 10.4919 9.28598 10.4925C9.31219 10.5078 9.33969 10.5209 9.36848 10.5316C9.36826 10.5316 9.36869 10.5316 9.36848 10.5316C9.3818 10.5366 9.39619 10.5413 9.41016 10.5452C9.4123 10.5458 9.41424 10.5465 9.41639 10.5469C9.42928 10.5503 9.44238 10.5533 9.45549 10.5559C9.45871 10.5566 9.46193 10.557 9.46516 10.5576C9.47783 10.5598 9.49072 10.5617 9.50383 10.563C9.50727 10.5634 9.5107 10.5634 9.51414 10.5639C9.52639 10.5647 9.53885 10.5654 9.55131 10.5656C9.55281 10.5656 9.55432 10.5658 9.55582 10.5658H11.0047C11.3014 10.5658 11.5418 10.3254 11.5418 10.0287C11.5418 9.73199 11.3014 9.49158 11.0047 9.49158L10.0156 9.49072Z" fill="white"/>
</svg>
