<svg width="30" height="19" viewBox="0 0 30 19" fill="none" xmlns="http://www.w3.org/2000/svg">
<path d="M15.0001 18.4663C14.3258 18.4659 13.6643 18.2823 13.0863 17.9351L0.606343 10.4463C0.421527 10.3352 0.268606 10.1781 0.162444 9.99042C0.0562811 9.80271 0.000488281 9.59072 0.000488281 9.37507C0.000488281 9.15942 0.0562811 8.94743 0.162444 8.75972C0.268606 8.57201 0.421527 8.41495 0.606343 8.30382L13.0863 0.81507C13.6643 0.467856 14.3259 0.284424 15.0001 0.284424C15.6743 0.284424 16.3359 0.467856 16.9138 0.81507L29.3938 8.30382C29.5787 8.41495 29.7316 8.57201 29.8377 8.75972C29.9439 8.94743 29.9997 9.15942 29.9997 9.37507C29.9997 9.59072 29.9439 9.80271 29.8377 9.99042C29.7316 10.1781 29.5787 10.3352 29.3938 10.4463L16.9138 17.9351C16.3359 18.2823 15.6744 18.4659 15.0001 18.4663ZM3.68009 9.37507L14.3751 15.7913C14.564 15.9043 14.78 15.964 15.0001 15.964C15.2202 15.964 15.4362 15.9043 15.6251 15.7913L26.3201 9.37507L15.6251 2.95882C15.4362 2.84583 15.2202 2.78616 15.0001 2.78616C14.78 2.78616 14.564 2.84583 14.3751 2.95882L3.68009 9.37507Z" fill="white"/>
</svg>
