<svg width="10" height="12" viewBox="0 0 10 12" fill="none" xmlns="http://www.w3.org/2000/svg">
<mask id="path-1-inside-1_1145_148" fill="white">
<path d="M6.85575 2.21466C5.63665 1.90371 4.36335 1.90371 3.14425 2.21466C3.04512 2.24048 2.95214 2.28717 2.87104 2.35183C2.78994 2.4165 2.72246 2.49777 2.67275 2.59062C2.62262 2.68471 2.59158 2.7885 2.58156 2.89556C2.57154 3.00263 2.58275 3.11069 2.6145 3.21306L2.92275 4.20366C2.97092 4.36029 3.06581 4.49688 3.19365 4.59365C3.32148 4.69042 3.47563 4.74234 3.63375 4.74186C3.69267 4.74188 3.75139 4.73482 3.80875 4.7208C4.59294 4.53412 5.40756 4.53412 6.19175 4.7208C6.37488 4.76662 6.5679 4.7388 6.73215 4.64291C6.8964 4.54701 7.01975 4.39012 7.0775 4.20366L7.38575 3.21306C7.41738 3.1107 7.42851 3.00268 7.41845 2.89567C7.40839 2.78867 7.37735 2.68494 7.32725 2.59088C7.27757 2.49798 7.21009 2.41666 7.12899 2.35195C7.0479 2.28724 6.9549 2.24051 6.85575 2.21466ZM6.91 3.0529L6.60175 4.0435C6.58199 4.10573 6.54036 4.15789 6.4852 4.18957C6.43004 4.22124 6.36541 4.23008 6.30425 4.21432C5.95791 4.132 5.60499 4.08318 5.25 4.06846V3.54066C5.25 3.47171 5.22366 3.40558 5.17678 3.35682C5.12989 3.30806 5.0663 3.28066 5 3.28066C4.9337 3.28066 4.87011 3.30806 4.82322 3.35682C4.77634 3.40558 4.75 3.47171 4.75 3.54066V4.06846C4.39491 4.08336 4.04191 4.13237 3.6955 4.21484C3.63437 4.23053 3.56981 4.22165 3.5147 4.18998C3.4596 4.15832 3.41801 4.10619 3.39825 4.04402L3.09 3.05342C3.07906 3.01899 3.07516 2.98256 3.07856 2.94647C3.08197 2.91038 3.09259 2.87543 3.10975 2.84386C3.12589 2.81318 3.14798 2.78632 3.17461 2.76497C3.20125 2.74362 3.23186 2.72825 3.2645 2.71984C3.343 2.69956 3.423 2.68396 3.50225 2.66654L3.5465 2.92134C3.55212 2.95516 3.56412 2.98748 3.58181 3.01644C3.5995 3.04541 3.62253 3.07044 3.64956 3.09011C3.6766 3.10977 3.70711 3.12368 3.73934 3.13102C3.77157 3.13837 3.80488 3.139 3.83735 3.13289C3.86981 3.12679 3.9008 3.11405 3.92851 3.09543C3.95622 3.07681 3.98012 3.05267 3.99882 3.0244C4.01751 2.99613 4.03065 2.96429 4.03746 2.93072C4.04427 2.89715 4.04462 2.8625 4.0385 2.82878L3.9945 2.57606C4.24504 2.53997 4.49721 2.51741 4.75 2.50846V2.76066C4.75 2.82962 4.77634 2.89575 4.82322 2.94451C4.87011 2.99327 4.9337 3.02066 5 3.02066C5.0663 3.02066 5.12989 2.99327 5.17678 2.94451C5.22366 2.89575 5.25 2.82962 5.25 2.76066V2.50846C5.50439 2.51739 5.75816 2.54021 6.01025 2.57684L5.9665 2.82878C5.96038 2.8625 5.96073 2.89715 5.96754 2.93072C5.97435 2.96429 5.98748 2.99613 6.00618 3.0244C6.02488 3.05267 6.04878 3.07681 6.07649 3.09543C6.1042 3.11405 6.13519 3.12679 6.16765 3.13289C6.20012 3.139 6.23343 3.13837 6.26566 3.13102C6.29789 3.12368 6.3284 3.10977 6.35544 3.09011C6.38247 3.07044 6.4055 3.04541 6.42319 3.01644C6.44088 2.98748 6.45288 2.95516 6.4585 2.92134L6.5025 2.66758C6.58025 2.68474 6.6585 2.70008 6.7355 2.71958C6.76814 2.72799 6.79875 2.74336 6.82539 2.76471C6.85202 2.78606 6.87411 2.81292 6.89025 2.8436C6.90745 2.8752 6.91809 2.9102 6.92149 2.94634C6.92489 2.98248 6.92098 3.01896 6.91 3.05342V3.0529Z"/>
<path d="M8.75 0.680664H1.25C0.918601 0.681077 0.600889 0.818173 0.366555 1.06188C0.13222 1.30559 0.000396964 1.63601 0 1.98066V9.78066C0.000396964 10.1253 0.13222 10.4557 0.366555 10.6994C0.600889 10.9432 0.918601 11.0803 1.25 11.0807H8.75C9.0814 11.0803 9.39911 10.9432 9.63344 10.6994C9.86778 10.4557 9.9996 10.1253 10 9.78066V1.98066C9.9996 1.63601 9.86778 1.30559 9.63344 1.06188C9.39911 0.818173 9.0814 0.681077 8.75 0.680664ZM9.5 9.78066C9.5 9.98753 9.42098 10.1859 9.28033 10.3322C9.13968 10.4785 8.94891 10.5607 8.75 10.5607H1.25C1.05109 10.5607 0.860322 10.4785 0.71967 10.3322C0.579018 10.1859 0.5 9.98753 0.5 9.78066V1.98066C0.5 1.7738 0.579018 1.5754 0.71967 1.42912C0.860322 1.28284 1.05109 1.20066 1.25 1.20066H8.75C8.94891 1.20066 9.13968 1.28284 9.28033 1.42912C9.42098 1.5754 9.5 1.7738 9.5 1.98066V9.78066Z"/>
<path d="M5 6.40066C4.9337 6.40066 4.87011 6.42806 4.82322 6.47682C4.77634 6.52558 4.75 6.59171 4.75 6.66066V9.00066C4.75 9.06962 4.77634 9.13575 4.82322 9.18451C4.87011 9.23327 4.9337 9.26066 5 9.26066C5.0663 9.26066 5.12989 9.23327 5.17678 9.18451C5.22366 9.13575 5.25 9.06962 5.25 9.00066V6.66066C5.25 6.59171 5.22366 6.52558 5.17678 6.47682C5.12989 6.42806 5.0663 6.40066 5 6.40066Z"/>
</mask>
<path d="M6.85575 2.21466C5.63665 1.90371 4.36335 1.90371 3.14425 2.21466C3.04512 2.24048 2.95214 2.28717 2.87104 2.35183C2.78994 2.4165 2.72246 2.49777 2.67275 2.59062C2.62262 2.68471 2.59158 2.7885 2.58156 2.89556C2.57154 3.00263 2.58275 3.11069 2.6145 3.21306L2.92275 4.20366C2.97092 4.36029 3.06581 4.49688 3.19365 4.59365C3.32148 4.69042 3.47563 4.74234 3.63375 4.74186C3.69267 4.74188 3.75139 4.73482 3.80875 4.7208C4.59294 4.53412 5.40756 4.53412 6.19175 4.7208C6.37488 4.76662 6.5679 4.7388 6.73215 4.64291C6.8964 4.54701 7.01975 4.39012 7.0775 4.20366L7.38575 3.21306C7.41738 3.1107 7.42851 3.00268 7.41845 2.89567C7.40839 2.78867 7.37735 2.68494 7.32725 2.59088C7.27757 2.49798 7.21009 2.41666 7.12899 2.35195C7.0479 2.28724 6.9549 2.24051 6.85575 2.21466ZM6.91 3.0529L6.60175 4.0435C6.58199 4.10573 6.54036 4.15789 6.4852 4.18957C6.43004 4.22124 6.36541 4.23008 6.30425 4.21432C5.95791 4.132 5.60499 4.08318 5.25 4.06846V3.54066C5.25 3.47171 5.22366 3.40558 5.17678 3.35682C5.12989 3.30806 5.0663 3.28066 5 3.28066C4.9337 3.28066 4.87011 3.30806 4.82322 3.35682C4.77634 3.40558 4.75 3.47171 4.75 3.54066V4.06846C4.39491 4.08336 4.04191 4.13237 3.6955 4.21484C3.63437 4.23053 3.56981 4.22165 3.5147 4.18998C3.4596 4.15832 3.41801 4.10619 3.39825 4.04402L3.09 3.05342C3.07906 3.01899 3.07516 2.98256 3.07856 2.94647C3.08197 2.91038 3.09259 2.87543 3.10975 2.84386C3.12589 2.81318 3.14798 2.78632 3.17461 2.76497C3.20125 2.74362 3.23186 2.72825 3.2645 2.71984C3.343 2.69956 3.423 2.68396 3.50225 2.66654L3.5465 2.92134C3.55212 2.95516 3.56412 2.98748 3.58181 3.01644C3.5995 3.04541 3.62253 3.07044 3.64956 3.09011C3.6766 3.10977 3.70711 3.12368 3.73934 3.13102C3.77157 3.13837 3.80488 3.139 3.83735 3.13289C3.86981 3.12679 3.9008 3.11405 3.92851 3.09543C3.95622 3.07681 3.98012 3.05267 3.99882 3.0244C4.01751 2.99613 4.03065 2.96429 4.03746 2.93072C4.04427 2.89715 4.04462 2.8625 4.0385 2.82878L3.9945 2.57606C4.24504 2.53997 4.49721 2.51741 4.75 2.50846V2.76066C4.75 2.82962 4.77634 2.89575 4.82322 2.94451C4.87011 2.99327 4.9337 3.02066 5 3.02066C5.0663 3.02066 5.12989 2.99327 5.17678 2.94451C5.22366 2.89575 5.25 2.82962 5.25 2.76066V2.50846C5.50439 2.51739 5.75816 2.54021 6.01025 2.57684L5.9665 2.82878C5.96038 2.8625 5.96073 2.89715 5.96754 2.93072C5.97435 2.96429 5.98748 2.99613 6.00618 3.0244C6.02488 3.05267 6.04878 3.07681 6.07649 3.09543C6.1042 3.11405 6.13519 3.12679 6.16765 3.13289C6.20012 3.139 6.23343 3.13837 6.26566 3.13102C6.29789 3.12368 6.3284 3.10977 6.35544 3.09011C6.38247 3.07044 6.4055 3.04541 6.42319 3.01644C6.44088 2.98748 6.45288 2.95516 6.4585 2.92134L6.5025 2.66758C6.58025 2.68474 6.6585 2.70008 6.7355 2.71958C6.76814 2.72799 6.79875 2.74336 6.82539 2.76471C6.85202 2.78606 6.87411 2.81292 6.89025 2.8436C6.90745 2.8752 6.91809 2.9102 6.92149 2.94634C6.92489 2.98248 6.92098 3.01896 6.91 3.05342V3.0529Z" stroke="white" stroke-width="10" mask="url(#path-1-inside-1_1145_148)"/>
<path d="M8.75 0.680664H1.25C0.918601 0.681077 0.600889 0.818173 0.366555 1.06188C0.13222 1.30559 0.000396964 1.63601 0 1.98066V9.78066C0.000396964 10.1253 0.13222 10.4557 0.366555 10.6994C0.600889 10.9432 0.918601 11.0803 1.25 11.0807H8.75C9.0814 11.0803 9.39911 10.9432 9.63344 10.6994C9.86778 10.4557 9.9996 10.1253 10 9.78066V1.98066C9.9996 1.63601 9.86778 1.30559 9.63344 1.06188C9.39911 0.818173 9.0814 0.681077 8.75 0.680664ZM9.5 9.78066C9.5 9.98753 9.42098 10.1859 9.28033 10.3322C9.13968 10.4785 8.94891 10.5607 8.75 10.5607H1.25C1.05109 10.5607 0.860322 10.4785 0.71967 10.3322C0.579018 10.1859 0.5 9.98753 0.5 9.78066V1.98066C0.5 1.7738 0.579018 1.5754 0.71967 1.42912C0.860322 1.28284 1.05109 1.20066 1.25 1.20066H8.75C8.94891 1.20066 9.13968 1.28284 9.28033 1.42912C9.42098 1.5754 9.5 1.7738 9.5 1.98066V9.78066Z" stroke="white" stroke-width="10" mask="url(#path-1-inside-1_1145_148)"/>
<path d="M5 6.40066C4.9337 6.40066 4.87011 6.42806 4.82322 6.47682C4.77634 6.52558 4.75 6.59171 4.75 6.66066V9.00066C4.75 9.06962 4.77634 9.13575 4.82322 9.18451C4.87011 9.23327 4.9337 9.26066 5 9.26066C5.0663 9.26066 5.12989 9.23327 5.17678 9.18451C5.22366 9.13575 5.25 9.06962 5.25 9.00066V6.66066C5.25 6.59171 5.22366 6.52558 5.17678 6.47682C5.12989 6.42806 5.0663 6.40066 5 6.40066Z" stroke="white" stroke-width="10" mask="url(#path-1-inside-1_1145_148)"/>
</svg>
